#N canvas 415 23 1286 688 10;
#X obj 107 -295 r Channel-A;
#X obj 109 -167 i;
#X obj 111 -264 hsl 128 15 0 1 0 0 empty empty empty -2 -8 0 10 -262144
-1 -1 5000 1;
#X obj 9 -332 r Channel-Push;
#X msg 9 -265 1;
#X obj 109 -124 pack;
#X msg 109 -74 \$2 \$1;
#X obj 10 -295 sel 1;
#X obj 109 -38 route 0 1 2 3 4 5 6 7;
#N canvas 0 22 984 516 kick 0;
#X obj 612 318 osc~;
#X obj 702 158 f;
#X obj 746 113 + 20;
#X obj 846 115 + 20;
#X obj 846 71 * 1000;
#X obj 613 146 f;
#X obj 614 259 line~;
#X obj 614 180 pack f f;
#X obj 611 110 t b b b;
#X obj 746 69 * 200;
#X msg 614 221 \$1 \, 0 \$2;
#X obj 612 352 *~ 0.5;
#X obj 609 59 inlet;
#X obj 744 35 inlet;
#X obj 848 37 inlet;
#X obj 612 384 *~ 1;
#X obj 917 32 inlet;
#X obj 840 266 line;
#X msg 849 216 \$1 5;
#X obj 610 413 outlet~;
#X connect 0 0 11 0;
#X connect 1 0 7 1;
#X connect 2 0 5 1;
#X connect 3 0 1 1;
#X connect 4 0 3 0;
#X connect 5 0 7 0;
#X connect 6 0 0 0;
#X connect 7 0 10 0;
#X connect 8 0 5 0;
#X connect 8 1 1 0;
#X connect 9 0 2 0;
#X connect 10 0 6 0;
#X connect 11 0 15 0;
#X connect 12 0 8 0;
#X connect 13 0 9 0;
#X connect 14 0 4 0;
#X connect 15 0 19 0;
#X connect 16 0 18 0;
#X connect 17 0 15 1;
#X connect 18 0 17 0;
#X restore 103 155 pd kick;
#X obj 234 255 dac~;
#N canvas -88 36 737 591 snare 0;
#X obj 292 148 noise~;
#X obj 344 310 *~;
#X obj 354 274 line~;
#X obj 345 336 *~ 0.5;
#X obj 350 419 *~ 0.5;
#X obj 373 204 i 40;
#X msg 353 246 1 \, 0 \$1;
#X obj 482 65 inlet;
#X obj 481 99 * 100;
#X obj 683 361 inlet;
#X obj 354 469 *~ 1;
#X obj 679 422 line;
#X msg 682 391 \$1 5;
#X obj 353 531 outlet~;
#X obj 569 95 hsl 128 15 0 1 0 0 empty empty empty -2 -8 0 10 -262144
-1 -1 0 1;
#X obj 481 120 + 40;
#X obj 574 148 + 400;
#X obj 561 57 inlet;
#X msg 579 198 $ 5;
#X obj 582 227 line;
#X floatatom 510 286 5 0 0 0 - - -;
#X obj 305 185 bp~ 440 1;
#X obj 569 120 * 1000;
#X connect 0 0 21 0;
#X connect 1 0 3 0;
#X connect 2 0 1 1;
#X connect 3 0 4 0;
#X connect 4 0 10 0;
#X connect 5 0 6 0;
#X connect 6 0 2 0;
#X connect 7 0 8 0;
#X connect 8 0 15 0;
#X connect 9 0 12 0;
#X connect 10 0 13 0;
#X connect 11 0 10 1;
#X connect 12 0 11 0;
#X connect 14 0 22 0;
#X connect 15 0 5 1;
#X connect 16 0 18 0;
#X connect 16 0 20 0;
#X connect 17 0 14 0;
#X connect 18 0 19 0;
#X connect 19 0 21 1;
#X connect 21 0 1 0;
#X connect 22 0 16 0;
#X restore 241 162 pd snare;
#X floatatom 178 -106 5 0 0 0 - - -;
#N canvas -457 23 967 617 sliderselector1 0;
#X floatatom 467 -130 5 0 0 0 - - -;
#X obj 468 -167 int;
#X obj 434 103 spigot;
#X obj 467 -16 route 0 1 2;
#X obj 468 42 unpack f f;
#X msg 467 -94 \$1 1 0;
#X obj 468 79 tgl 15 0 empty empty empty 17 7 0 10 -262144 -1 -1 0
1;
#X obj 552 44 unpack f f;
#X obj 552 81 tgl 15 0 empty empty empty 17 7 0 10 -262144 -1 -1 0
1;
#X obj 641 48 unpack f f;
#X obj 641 85 tgl 15 0 empty empty empty 17 7 0 10 -262144 -1 -1 1
1;
#X obj 520 125 spigot;
#X obj 601 141 spigot;
#X obj 754 1 inlet;
#X obj 415 181 outlet;
#X obj 507 185 outlet;
#X obj 601 192 outlet;
#X obj 465 -221 inlet;
#X obj 467 -191 * 6;
#X connect 0 0 5 0;
#X connect 1 0 0 0;
#X connect 2 0 14 0;
#X connect 3 0 4 0;
#X connect 3 1 7 0;
#X connect 3 2 9 0;
#X connect 4 0 6 0;
#X connect 4 1 8 0;
#X connect 4 1 10 0;
#X connect 5 0 3 0;
#X connect 6 0 2 1;
#X connect 7 0 8 0;
#X connect 7 1 6 0;
#X connect 7 1 10 0;
#X connect 8 0 11 1;
#X connect 9 0 10 0;
#X connect 9 1 6 0;
#X connect 9 1 8 0;
#X connect 10 0 12 1;
#X connect 11 0 15 0;
#X connect 12 0 16 0;
#X connect 13 0 2 0;
#X connect 13 0 11 0;
#X connect 13 0 12 0;
#X connect 17 0 18 0;
#X connect 18 0 1 0;
#X restore 467 -117 pd sliderselector1;
#X obj 586 -178 r Channel-B;
#N canvas 0 22 967 617 sliderselector1 0;
#X floatatom 467 -130 5 0 0 0 - - -;
#X obj 468 -167 int;
#X obj 434 103 spigot;
#X obj 467 -16 route 0 1 2;
#X obj 468 42 unpack f f;
#X msg 467 -94 \$1 1 0;
#X obj 468 79 tgl 15 0 empty empty empty 17 7 0 10 -262144 -1 -1 0
1;
#X obj 552 44 unpack f f;
#X obj 552 81 tgl 15 0 empty empty empty 17 7 0 10 -262144 -1 -1 0
1;
#X obj 641 48 unpack f f;
#X obj 641 85 tgl 15 0 empty empty empty 17 7 0 10 -262144 -1 -1 1
1;
#X obj 520 125 spigot;
#X obj 601 141 spigot;
#X obj 769 -6 inlet;
#X obj 415 181 outlet;
#X obj 507 185 outlet;
#X obj 601 192 outlet;
#X obj 465 -221 inlet;
#X obj 467 -191 * 6;
#X connect 0 0 5 0;
#X connect 1 0 0 0;
#X connect 2 0 14 0;
#X connect 3 0 4 0;
#X connect 3 1 7 0;
#X connect 3 2 9 0;
#X connect 4 0 6 0;
#X connect 4 1 8 0;
#X connect 4 1 10 0;
#X connect 5 0 3 0;
#X connect 6 0 2 1;
#X connect 7 0 8 0;
#X connect 7 1 6 0;
#X connect 7 1 10 0;
#X connect 8 0 11 1;
#X connect 9 0 10 0;
#X connect 9 1 6 0;
#X connect 9 1 8 0;
#X connect 10 0 12 1;
#X connect 11 0 15 0;
#X connect 12 0 16 0;
#X connect 13 0 2 0;
#X connect 13 0 11 0;
#X connect 13 0 12 0;
#X connect 17 0 18 0;
#X connect 18 0 1 0;
#X restore 552 33 pd sliderselector1;
#X obj 671 -28 r Channel-C;
#N canvas -143 29 959 662 hat 0;
#X obj 471 185 noise~;
#X obj 507 314 *~;
#X obj 507 342 *~ 0.5;
#X obj 380 48 inlet;
#X obj 599 26 inlet;
#X obj 599 91 + 5;
#X obj 495 12 inlet;
#X obj 561 192 + 10000;
#X obj 512 388 *~ 1;
#X obj 718 76 inlet;
#X obj 507 435 outlet~;
#X floatatom 598 122 5 0 0 0 - - -;
#X obj 368 237 line;
#X obj 494 247 hip~ 12000;
#X msg 369 173 1 \, 0 \$1;
#X obj 599 61 * 500;
#X obj 369 132 float;
#X obj 388 92 bng 15 250 50 0 empty empty empty 17 7 0 10 -262144 -1
-1;
#X obj 499 61 * 12000;
#X obj 566 -73 hsl 128 15 0 1 0 0 empty empty empty -2 -8 0 10 -262144
-1 -1 0 1;
#X obj 497 273 hip~ 12000;
#X connect 0 0 13 0;
#X connect 1 0 2 0;
#X connect 2 0 8 0;
#X connect 3 0 17 0;
#X connect 4 0 15 0;
#X connect 5 0 11 0;
#X connect 6 0 18 0;
#X connect 7 0 13 1;
#X connect 7 0 20 1;
#X connect 8 0 10 0;
#X connect 9 0 8 1;
#X connect 11 0 16 1;
#X connect 12 0 1 0;
#X connect 13 0 20 0;
#X connect 14 0 12 0;
#X connect 15 0 5 0;
#X connect 16 0 14 0;
#X connect 17 0 16 0;
#X connect 18 0 7 0;
#X connect 19 0 18 0;
#X connect 20 0 1 1;
#X restore 390 202 pd hat;
#N canvas 0 22 967 617 sliderselector1 0;
#X floatatom 467 -130 5 0 0 0 - - -;
#X obj 468 -167 int;
#X obj 434 103 spigot;
#X obj 467 -16 route 0 1 2;
#X obj 468 42 unpack f f;
#X msg 467 -94 \$1 1 0;
#X obj 468 79 tgl 15 0 empty empty empty 17 7 0 10 -262144 -1 -1 0
1;
#X obj 552 44 unpack f f;
#X obj 552 81 tgl 15 0 empty empty empty 17 7 0 10 -262144 -1 -1 0
1;
#X obj 641 48 unpack f f;
#X obj 641 85 tgl 15 0 empty empty empty 17 7 0 10 -262144 -1 -1 1
1;
#X obj 520 125 spigot;
#X obj 601 141 spigot;
#X obj 778 -2 inlet;
#X obj 415 181 outlet;
#X obj 507 185 outlet;
#X obj 601 192 outlet;
#X obj 465 -221 inlet;
#X obj 467 -191 * 6;
#X connect 0 0 5 0;
#X connect 1 0 0 0;
#X connect 2 0 14 0;
#X connect 3 0 4 0;
#X connect 3 1 7 0;
#X connect 3 2 9 0;
#X connect 4 0 6 0;
#X connect 4 1 8 0;
#X connect 4 1 10 0;
#X connect 5 0 3 0;
#X connect 6 0 2 1;
#X connect 7 0 8 0;
#X connect 7 1 6 0;
#X connect 7 1 10 0;
#X connect 8 0 11 1;
#X connect 9 0 10 0;
#X connect 9 1 6 0;
#X connect 9 1 8 0;
#X connect 10 0 12 1;
#X connect 11 0 15 0;
#X connect 12 0 16 0;
#X connect 13 0 2 0;
#X connect 13 0 11 0;
#X connect 13 0 12 0;
#X connect 17 0 18 0;
#X connect 18 0 1 0;
#X restore 587 108 pd sliderselector1;
#X obj 706 47 r Channel-D;
#X obj 539 -247 hsl 128 15 0 1 0 0 empty empty empty -2 -8 0 10 -262144
-1 -1 0 1;
#X obj 650 -110 hsl 128 15 0 1 0 0 empty empty empty -2 -8 0 10 -262144
-1 -1 3900 1;
#X obj 768 73 hsl 128 15 0 1 0 0 empty empty empty -2 -8 0 10 -262144
-1 -1 12700 1;
#X obj 109 -201 * 6;
#X floatatom 521 -67 5 0 0 0 - - -;
#X connect 0 0 2 0;
#X connect 1 0 5 1;
#X connect 1 0 12 0;
#X connect 2 0 13 0;
#X connect 2 0 15 0;
#X connect 2 0 18 0;
#X connect 2 0 23 0;
#X connect 3 0 7 0;
#X connect 4 0 5 0;
#X connect 5 0 6 0;
#X connect 6 0 8 0;
#X connect 7 0 4 0;
#X connect 8 0 9 0;
#X connect 8 2 17 0;
#X connect 9 0 10 0;
#X connect 9 0 10 1;
#X connect 11 0 10 0;
#X connect 11 0 10 1;
#X connect 13 0 9 1;
#X connect 13 1 11 1;
#X connect 13 1 24 0;
#X connect 13 2 17 1;
#X connect 14 0 13 1;
#X connect 15 0 9 2;
#X connect 15 1 11 0;
#X connect 15 2 17 2;
#X connect 16 0 15 1;
#X connect 17 0 10 0;
#X connect 17 0 10 1;
#X connect 18 0 9 3;
#X connect 18 1 11 2;
#X connect 18 2 17 3;
#X connect 19 0 18 1;
#X connect 20 0 13 1;
#X connect 21 0 15 1;
#X connect 22 0 18 1;
#X connect 23 0 1 0;
