#N canvas 69 23 1286 688 10;
#X obj 162 16 r Channel-A;
#X obj 164 144 i;
#X obj 167 82 hsl 128 15 0 1 0 0 empty empty empty -2 -8 0 10 -262144
-1 -1 0 1;
#X obj 64 -21 r Channel-Push;
#X msg 64 46 1;
#X obj 164 187 pack;
#X obj 164 308 bng 15 250 50 0 empty empty empty 17 7 0 10 -262144
-1 -1;
#X obj 186 309 bng 15 250 50 0 empty empty empty 17 7 0 10 -262144
-1 -1;
#X obj 208 308 bng 15 250 50 0 empty empty empty 17 7 0 10 -262144
-1 -1;
#X obj 281 316 bng 15 250 50 0 empty empty empty 17 7 0 10 -262144
-1 -1;
#X msg 164 237 \$2 \$1;
#X obj 164 342 s kick;
#X obj 279 347 s hat;
#X obj 410 576 dac~;
#X obj 972 352 hsl 128 15 0 1 0 0 empty empty empty -2 -8 0 10 -262144
-1 -1 0 1;
#X obj 1072 322 hsl 128 15 0 1 0 0 empty empty empty -2 -8 0 10 -262144
-1 -1 0 1;
#X obj 885 437 r kick;
#X obj 353 236 r snare;
#X obj 668 212 r hat;
#X obj 65 16 sel 1;
#N canvas 0 22 984 516 kick 0;
#X obj 612 318 osc~;
#X obj 702 158 f;
#X obj 746 113 + 20;
#X obj 846 115 + 20;
#X obj 846 71 * 1000;
#X obj 613 146 f;
#X obj 614 259 line~;
#X obj 614 180 pack f f;
#X obj 611 110 t b b b;
#X obj 746 69 * 200;
#X msg 621 218 \$1 \, 0 \$2;
#X obj 612 352 *~ 0.5;
#X obj 609 59 inlet;
#X obj 744 35 inlet;
#X obj 848 37 inlet;
#X obj 610 413 throw~ kick;
#X obj 612 384 *~ 1;
#X obj 917 32 inlet;
#X obj 840 266 line;
#X msg 849 216 \$1 5;
#X connect 0 0 11 0;
#X connect 1 0 7 1;
#X connect 2 0 5 1;
#X connect 3 0 1 1;
#X connect 4 0 3 0;
#X connect 5 0 7 0;
#X connect 6 0 0 0;
#X connect 7 0 10 0;
#X connect 8 0 5 0;
#X connect 8 1 1 0;
#X connect 9 0 2 0;
#X connect 10 0 6 0;
#X connect 11 0 16 0;
#X connect 12 0 8 0;
#X connect 13 0 9 0;
#X connect 14 0 4 0;
#X connect 16 0 15 0;
#X connect 17 0 19 0;
#X connect 18 0 16 1;
#X connect 19 0 18 0;
#X restore 916 530 pd kick;
#N canvas 214 106 959 662 hat 0;
#X obj 455 198 noise~;
#X obj 507 314 *~;
#X obj 368 237 line~;
#X obj 507 342 *~ 0.5;
#X obj 448 72 inlet;
#X obj 449 252 hip~ 12000;
#X obj 451 279 hip~ 12000;
#X obj 507 435 throw~ hat;
#X obj 455 117 i 20;
#X obj 662 77 inlet;
#X obj 662 142 + 5;
#X obj 531 60 inlet;
#X obj 545 178 + 10000;
#X obj 512 388 *~ 1;
#X obj 718 76 inlet;
#X msg 366 184 1 \, 0 \$1;
#X obj 662 112 * 50;
#X obj 544 109 * 8000;
#X connect 0 0 5 0;
#X connect 1 0 3 0;
#X connect 2 0 1 1;
#X connect 3 0 13 0;
#X connect 4 0 8 0;
#X connect 5 0 6 0;
#X connect 6 0 1 0;
#X connect 8 0 15 0;
#X connect 9 0 16 0;
#X connect 10 0 8 1;
#X connect 11 0 17 0;
#X connect 12 0 5 1;
#X connect 12 0 6 1;
#X connect 13 0 7 0;
#X connect 14 0 13 1;
#X connect 15 0 2 0;
#X connect 16 0 10 0;
#X connect 17 0 12 0;
#X restore 673 305 pd hat;
#N canvas 0 22 737 591 snare 0;
#X obj 307 149 noise~;
#X obj 344 310 *~;
#X obj 354 274 line~;
#X obj 345 336 *~ 0.5;
#X obj 397 115 inlet;
#N canvas 485 119 450 300 tri 0;
#X obj 111 150 phasor~;
#X msg 110 116 440;
#X obj 111 178 *~ 2;
#X obj 113 203 -~ 1;
#X msg 158 111 0;
#X obj 177 153 phasor~;
#X obj 177 181 *~ 2;
#X obj 179 206 -~ 1;
#X obj 137 239 +~;
#X obj 110 81 t b b b;
#X obj 139 289 outlet~;
#X obj 108 37 inlet;
#X obj 141 263 *~ 0.5;
#X connect 0 0 2 0;
#X connect 1 0 0 0;
#X connect 2 0 3 0;
#X connect 3 0 8 0;
#X connect 4 0 0 1;
#X connect 4 0 5 1;
#X connect 5 0 6 0;
#X connect 6 0 7 0;
#X connect 7 0 8 1;
#X connect 8 0 12 0;
#X connect 9 0 1 0;
#X connect 9 1 4 0;
#X connect 11 0 9 0;
#X connect 12 0 10 0;
#X restore 439 218 pd tri;
#X obj 455 320 *~;
#X obj 465 284 line~;
#X obj 383 162 t b b b;
#X obj 356 428 *~ 0.5;
#X obj 414 429 *~ 0.5;
#X msg 597 333 1;
#X obj 577 298 t f b f;
#X obj 601 383 -;
#X obj 578 263 inlet;
#X obj 445 190 i 40;
#X obj 305 185 hip~ 440;
#X msg 464 256 1 \, 0 \$1;
#X obj 373 204 i 40;
#X msg 353 246 1 \, 0 \$1;
#X obj 482 65 inlet;
#X obj 481 99 * 100;
#X obj 683 361 inlet;
#X obj 354 469 *~ 1;
#X obj 353 531 throw~ snare;
#X obj 481 120 + 20;
#X obj 679 422 line;
#X msg 682 391 \$1 5;
#X connect 0 0 16 0;
#X connect 1 0 3 0;
#X connect 2 0 1 1;
#X connect 3 0 9 0;
#X connect 4 0 8 0;
#X connect 5 0 6 0;
#X connect 6 0 10 0;
#X connect 7 0 6 1;
#X connect 8 0 18 0;
#X connect 8 1 5 0;
#X connect 8 2 15 0;
#X connect 9 0 23 0;
#X connect 10 0 23 0;
#X connect 11 0 13 0;
#X connect 12 0 9 1;
#X connect 12 1 11 0;
#X connect 12 2 13 1;
#X connect 13 0 10 1;
#X connect 14 0 12 0;
#X connect 15 0 17 0;
#X connect 16 0 1 0;
#X connect 17 0 7 0;
#X connect 18 0 19 0;
#X connect 19 0 2 0;
#X connect 20 0 21 0;
#X connect 21 0 25 0;
#X connect 22 0 27 0;
#X connect 23 0 24 0;
#X connect 25 0 15 1;
#X connect 25 0 18 1;
#X connect 26 0 23 1;
#X connect 27 0 26 0;
#X restore 388 339 pd snare;
#X obj 693 528 catch~ hat;
#X obj 243 516 catch~ kick;
#X obj 333 519 catch~ snare;
#X obj 186 376 s snare;
#X obj 516 525 catch~ tom2;
#X obj 428 522 catch~ tom1;
#X obj 603 527 catch~ tom3;
#X obj 367 19 hsl 128 15 0 1 0 0 empty empty empty -2 -8 0 10 -262144
-1 -1 0 1;
#N canvas 0 22 829 594 tom1 0;
#X obj 458 176 *~;
#X obj 455 136 osc~;
#X obj 452 75 * 60;
#X obj 454 102 + 100;
#X obj 371 129 line~;
#X obj 468 223 *~ 0.5;
#X obj 367 2 inlet;
#X obj 457 42 inlet;
#X obj 478 333 throw~ tom1;
#X obj 478 276 *~ 1;
#X obj 521 -36 inlet;
#X obj 368 47 i 200;
#X obj 593 7 inlet;
#X obj 522 -5 * 500;
#X msg 369 76 1 \, 0 \$1;
#X obj 564 137 line;
#X msg 573 87 \$1 5;
#X connect 0 0 5 0;
#X connect 1 0 0 0;
#X connect 2 0 3 0;
#X connect 3 0 1 0;
#X connect 4 0 0 1;
#X connect 5 0 9 0;
#X connect 6 0 11 0;
#X connect 7 0 2 0;
#X connect 9 0 8 0;
#X connect 10 0 13 0;
#X connect 11 0 14 0;
#X connect 12 0 16 0;
#X connect 13 0 11 1;
#X connect 14 0 4 0;
#X connect 15 0 9 1;
#X connect 16 0 15 0;
#X restore 337 122 pd tom1;
#X obj 292 2 r tom1;
#X obj 364 -17 r c3;
#X obj 335 -42 hsl 128 15 0 1 0 0 empty empty empty -2 -8 0 10 -262144
-1 -1 0 1;
#X obj 378 40 r d3;
#X obj 384 74 hsl 128 15 0 1 0 0 empty empty empty -2 -8 0 10 -262144
-1 -1 0 1;
#X obj 164 273 route 0 1 2 3 4 5 6 7;
#X obj 208 410 s tom1;
#X obj 232 310 bng 15 250 50 0 empty empty empty 17 7 0 10 -262144
-1 -1;
#X obj 232 432 s tom2;
#X obj 254 311 bng 15 250 50 0 empty empty empty 17 7 0 10 -262144
-1 -1;
#X obj 255 455 s tom3;
#X obj 588 22 hsl 128 15 0 1 0 0 empty empty empty -2 -8 0 10 -262144
-1 -1 0 1;
#X obj 556 -39 hsl 128 15 0 1 0 0 empty empty empty -2 -8 0 10 -262144
-1 -1 0 1;
#X obj 605 77 hsl 128 15 0 1 0 0 empty empty empty -2 -8 0 10 -262144
-1 -1 0 1;
#X obj 513 5 r tom2;
#X obj 553 -75 r b4;
#N canvas 0 22 829 594 tom2 0;
#X obj 458 176 *~;
#X obj 455 136 osc~;
#X obj 452 75 * 60;
#X obj 454 102 + 100;
#X obj 371 129 line~;
#X obj 468 223 *~ 0.5;
#X obj 367 2 inlet;
#X obj 457 42 inlet;
#X obj 478 276 *~ 1;
#X obj 521 -36 inlet;
#X obj 368 47 i 200;
#X obj 593 7 inlet;
#X obj 522 -5 * 500;
#X msg 369 76 1 \, 0 \$1;
#X obj 478 333 throw~ tom2;
#X obj 564 137 line;
#X msg 573 87 \$1 5;
#X connect 0 0 5 0;
#X connect 1 0 0 0;
#X connect 2 0 3 0;
#X connect 3 0 1 0;
#X connect 4 0 0 1;
#X connect 5 0 8 0;
#X connect 6 0 10 0;
#X connect 7 0 2 0;
#X connect 8 0 14 0;
#X connect 9 0 12 0;
#X connect 10 0 13 0;
#X connect 11 0 16 0;
#X connect 12 0 10 1;
#X connect 13 0 4 0;
#X connect 15 0 8 1;
#X connect 16 0 15 0;
#X restore 558 125 pd tom2;
#X obj 809 31 hsl 128 15 0 1 0 0 empty empty empty -2 -8 0 10 -262144
-1 -1 0 1;
#X obj 777 -30 hsl 128 15 0 1 0 0 empty empty empty -2 -8 0 10 -262144
-1 -1 0 1;
#X obj 826 86 hsl 128 15 0 1 0 0 empty empty empty -2 -8 0 10 -262144
-1 -1 0 1;
#N canvas 0 22 829 594 tom3 0;
#X obj 458 176 *~;
#X obj 455 136 osc~;
#X obj 452 75 * 60;
#X obj 454 102 + 100;
#X obj 371 129 line~;
#X obj 468 223 *~ 0.5;
#X obj 367 2 inlet;
#X obj 457 42 inlet;
#X obj 478 276 *~ 1;
#X obj 521 -36 inlet;
#X obj 368 47 i 200;
#X obj 593 7 inlet;
#X obj 522 -5 * 500;
#X msg 369 76 1 \, 0 \$1;
#X obj 478 333 throw~ tom3;
#X obj 564 137 line;
#X msg 573 87 \$1 5;
#X connect 0 0 5 0;
#X connect 1 0 0 0;
#X connect 2 0 3 0;
#X connect 3 0 1 0;
#X connect 4 0 0 1;
#X connect 5 0 8 0;
#X connect 6 0 10 0;
#X connect 7 0 2 0;
#X connect 8 0 14 0;
#X connect 9 0 12 0;
#X connect 10 0 13 0;
#X connect 11 0 16 0;
#X connect 12 0 10 1;
#X connect 13 0 4 0;
#X connect 15 0 8 1;
#X connect 16 0 15 0;
#X restore 779 134 pd tom3;
#X obj 734 14 r tom3;
#X obj 457 251 hsl 128 15 0 1 0 0 empty empty empty -2 -8 0 10 -262144
-1 -1 0 1;
#X obj 425 190 hsl 128 15 0 1 0 0 empty empty empty -2 -8 0 10 -262144
-1 -1 0 1;
#X obj 474 306 hsl 128 15 0 1 0 0 empty empty empty -2 -8 0 10 -262144
-1 -1 0 1;
#X obj 1067 470 hsl 128 15 0 1 0 0 empty empty empty -2 -8 0 10 -262144
-1 -1 0 1;
#X obj 732 255 hsl 128 15 0 1 0 0 empty empty empty -2 -8 0 10 -262144
-1 -1 0 1;
#X obj 839 225 hsl 128 15 0 1 0 0 empty empty empty -2 -8 0 10 -262144
-1 -1 0 1;
#X obj 834 373 hsl 128 15 0 1 0 0 empty empty empty -2 -8 0 10 -262144
-1 -1 0 1;
#X obj 164 110 * 6;
#X obj 969 260 r a0;
#X obj 1069 260 r b0;
#X obj 1064 408 r c0;
#X obj 422 154 r b1;
#X obj 454 215 r b2;
#X obj 468 272 r c2;
#X obj 332 -78 r b3;
#X obj 585 -14 r c4;
#X obj 599 43 r d4;
#X obj 774 -66 r b5;
#X obj 806 -5 r c5;
#X obj 820 52 r d5;
#X obj 736 163 r a6;
#X obj 836 163 r b6;
#X obj 831 311 r c6;
#X connect 0 0 2 0;
#X connect 1 0 5 1;
#X connect 2 0 61 0;
#X connect 3 0 19 0;
#X connect 4 0 5 0;
#X connect 5 0 10 0;
#X connect 6 0 11 0;
#X connect 7 0 26 0;
#X connect 8 0 38 0;
#X connect 9 0 12 0;
#X connect 10 0 37 0;
#X connect 14 0 20 1;
#X connect 15 0 20 2;
#X connect 16 0 20 0;
#X connect 17 0 22 0;
#X connect 18 0 21 0;
#X connect 19 0 4 0;
#X connect 23 0 13 0;
#X connect 23 0 13 1;
#X connect 24 0 13 0;
#X connect 24 0 13 1;
#X connect 25 0 13 0;
#X connect 25 0 13 1;
#X connect 27 0 13 0;
#X connect 27 0 13 1;
#X connect 28 0 13 0;
#X connect 28 0 13 1;
#X connect 29 0 13 0;
#X connect 29 0 13 1;
#X connect 30 0 31 2;
#X connect 32 0 31 0;
#X connect 33 0 30 0;
#X connect 34 0 31 1;
#X connect 35 0 36 0;
#X connect 36 0 31 3;
#X connect 37 0 6 0;
#X connect 37 1 7 0;
#X connect 37 2 8 0;
#X connect 37 3 39 0;
#X connect 37 4 41 0;
#X connect 37 5 9 0;
#X connect 39 0 40 0;
#X connect 41 0 42 0;
#X connect 43 0 48 2;
#X connect 44 0 48 1;
#X connect 45 0 48 3;
#X connect 46 0 48 0;
#X connect 47 0 44 0;
#X connect 49 0 52 2;
#X connect 50 0 52 1;
#X connect 51 0 52 3;
#X connect 53 0 52 0;
#X connect 54 0 22 2;
#X connect 55 0 22 1;
#X connect 56 0 22 3;
#X connect 57 0 20 3;
#X connect 58 0 21 1;
#X connect 59 0 21 2;
#X connect 60 0 21 3;
#X connect 61 0 1 0;
#X connect 62 0 14 0;
#X connect 63 0 15 0;
#X connect 64 0 57 0;
#X connect 65 0 55 0;
#X connect 66 0 54 0;
#X connect 67 0 56 0;
#X connect 68 0 34 0;
#X connect 69 0 43 0;
#X connect 70 0 45 0;
#X connect 71 0 50 0;
#X connect 72 0 49 0;
#X connect 73 0 51 0;
#X connect 74 0 58 0;
#X connect 75 0 59 0;
#X connect 76 0 60 0;
