#N canvas 465 97 815 536 10;
#X obj 164 51 r Channel-A;
#X obj 164 144 i;
#X obj 167 82 hsl 128 15 0 1 0 0 empty empty empty -2 -8 0 10 -262144
-1 -1 3100 1;
#X obj 308 27 r Channel-Push;
#X msg 308 84 1;
#X obj 164 187 pack;
#X obj 308 57 bng 15 250 50 0 empty empty empty 17 7 0 10 -262144 -1
-1;
#X obj 164 308 bng 15 250 50 0 empty empty empty 17 7 0 10 -262144
-1 -1;
#X obj 186 309 bng 15 250 50 0 empty empty empty 17 7 0 10 -262144
-1 -1;
#X obj 208 308 bng 15 250 50 0 empty empty empty 17 7 0 10 -262144
-1 -1;
#X obj 230 309 bng 15 250 50 0 empty empty empty 17 7 0 10 -262144
-1 -1;
#X msg 164 237 \$2 \$1;
#X obj 164 273 route 0 1 2 3 4;
#X obj 164 110 * 4;
#X obj 164 342 s kick;
#X obj 186 376 s snare;
#X obj 208 410 s tom;
#X obj 231 449 s hat;
#N canvas 0 22 775 688 kick 0;
#X obj 386 402 osc~;
#X obj 476 242 f;
#X obj 520 197 + 20;
#X obj 620 199 + 20;
#X obj 620 155 * 1000;
#X obj 387 230 f;
#X obj 388 343 line~;
#X msg 395 302 \$1 \, 20 \$2;
#X obj 388 264 pack f f;
#X obj 385 194 t b b b;
#X obj 520 153 * 200;
#X obj 386 436 *~ 0.7;
#X obj 385 161 r kick;
#X obj 387 470 outlet~;
#X obj 519 130 inlet;
#X obj 618 129 inlet;
#X connect 0 0 11 0;
#X connect 1 0 8 1;
#X connect 2 0 5 1;
#X connect 3 0 1 1;
#X connect 4 0 3 0;
#X connect 5 0 8 0;
#X connect 6 0 0 0;
#X connect 7 0 6 0;
#X connect 8 0 7 0;
#X connect 9 0 5 0;
#X connect 9 1 1 0;
#X connect 10 0 2 0;
#X connect 11 0 13 0;
#X connect 12 0 9 0;
#X connect 14 0 10 0;
#X connect 15 0 4 0;
#X restore 329 238 pd kick;
#X obj 377 345 dac~;
#N canvas 330 54 892 657 snare 0;
#X obj 208 175 noise~;
#X obj 332 222 vline~;
#X msg 330 169 1 \, 0 40;
#X text 420 249;
#X obj 260 291 *~;
#X obj 206 211 hip~ 400;
#X obj 259 363 outlet~;
#X obj 327 119 r snare;
#X obj 260 319 *~ 0.7;
#X connect 0 0 5 0;
#X connect 1 0 4 1;
#X connect 2 0 1 0;
#X connect 4 0 8 0;
#X connect 5 0 4 0;
#X connect 7 0 2 0;
#X connect 8 0 6 0;
#X restore 398 238 pd snare;
#X obj 470 216 hsl 128 15 0 1 0 0 empty empty empty -2 -8 0 10 -262144
-1 -1 8100 1;
#X obj 471 185 r Channel-D;
#X obj 328 100 r Channel-B;
#X obj 428 100 r Channel-C;
#X obj 331 192 hsl 128 15 0 1 0 0 empty empty empty -2 -8 0 10 -262144
-1 -1 3400 1;
#X obj 431 162 hsl 128 15 0 1 0 0 empty empty empty -2 -8 0 10 -262144
-1 -1 4600 1;
#N canvas 330 54 892 657 tom 1;
#X obj 332 222 vline~;
#X obj 260 291 *~;
#X obj 259 363 outlet~;
#X obj 260 319 *~ 0.7;
#X obj 150 187 osc~;
#X obj 150 94 inlet;
#X obj 327 119 r tom;
#X obj 150 126 * 60;
#X obj 149 153 + 100;
#X msg 330 169 1 \, 0 200;
#X connect 0 0 1 1;
#X connect 1 0 3 0;
#X connect 3 0 2 0;
#X connect 4 0 1 0;
#X connect 5 0 7 0;
#X connect 6 0 9 0;
#X connect 7 0 8 0;
#X connect 8 0 4 0;
#X connect 9 0 0 0;
#X restore 470 257 pd tom;
#N canvas 330 54 892 657 hat 0;
#X obj 208 175 noise~;
#X obj 332 222 vline~;
#X obj 260 291 *~;
#X obj 259 363 outlet~;
#X obj 260 319 *~ 0.7;
#X obj 327 119 r hat;
#X msg 330 169 1 \, 0 30;
#X obj 206 211 hip~ 10000;
#X obj 206 239 hip~ 1000;
#X connect 0 0 7 0;
#X connect 1 0 2 1;
#X connect 2 0 4 0;
#X connect 4 0 3 0;
#X connect 5 0 6 0;
#X connect 6 0 1 0;
#X connect 7 0 8 0;
#X connect 8 0 2 0;
#X restore 474 284 pd hat;
#X connect 0 0 2 0;
#X connect 1 0 5 1;
#X connect 2 0 13 0;
#X connect 3 0 6 0;
#X connect 4 0 5 0;
#X connect 5 0 11 0;
#X connect 6 0 4 0;
#X connect 7 0 14 0;
#X connect 8 0 15 0;
#X connect 9 0 16 0;
#X connect 10 0 17 0;
#X connect 11 0 12 0;
#X connect 12 0 7 0;
#X connect 12 1 8 0;
#X connect 12 2 9 0;
#X connect 12 3 10 0;
#X connect 13 0 1 0;
#X connect 18 0 19 0;
#X connect 18 0 19 1;
#X connect 20 0 19 0;
#X connect 20 0 19 1;
#X connect 21 0 27 0;
#X connect 22 0 21 0;
#X connect 23 0 25 0;
#X connect 24 0 26 0;
#X connect 25 0 18 0;
#X connect 26 0 18 1;
#X connect 27 0 19 0;
#X connect 27 0 19 1;
#X connect 28 0 19 0;
#X connect 28 0 19 1;
