#N canvas 69 23 1286 688 10;
#X obj 162 16 r Channel-A;
#X obj 164 144 i;
#X obj 167 82 hsl 128 15 0 1 0 0 empty empty empty -2 -8 0 10 -262144
-1 -1 0 1;
#X obj 64 -21 r Channel-Push;
#X msg 67 50 1;
#X obj 164 187 pack;
#X obj 164 308 bng 15 250 50 0 empty empty empty 17 7 0 10 -262144
-1 -1;
#X obj 186 309 bng 15 250 50 0 empty empty empty 17 7 0 10 -262144
-1 -1;
#X obj 208 308 bng 15 250 50 0 empty empty empty 17 7 0 10 -262144
-1 -1;
#X obj 281 316 bng 15 250 50 0 empty empty empty 17 7 0 10 -262144
-1 -1;
#X msg 164 237 \$2 \$1;
#X obj 164 342 s kick;
#X obj 279 347 s hat;
#X obj 410 576 dac~;
#X obj 972 352 hsl 128 15 0 1 0 0 empty empty empty -2 -8 0 10 -262144
-1 -1 0 1;
#X obj 1072 322 hsl 128 15 0 1 0 0 empty empty empty -2 -8 0 10 -262144
-1 -1 0 1;
#X obj 885 437 r kick;
#X obj 65 16 sel 1;
#N canvas 0 22 984 516 kick 0;
#X obj 612 318 osc~;
#X obj 702 158 f;
#X obj 746 113 + 20;
#X obj 846 115 + 20;
#X obj 846 71 * 1000;
#X obj 613 146 f;
#X obj 614 259 line~;
#X obj 614 180 pack f f;
#X obj 611 110 t b b b;
#X obj 746 69 * 200;
#X msg 621 218 \$1 \, 0 \$2;
#X obj 612 352 *~ 0.5;
#X obj 609 59 inlet;
#X obj 744 35 inlet;
#X obj 848 37 inlet;
#X obj 610 413 throw~ kick;
#X obj 612 384 *~ 1;
#X obj 917 32 inlet;
#X obj 840 266 line;
#X msg 849 216 \$1 5;
#X connect 0 0 11 0;
#X connect 1 0 7 1;
#X connect 2 0 5 1;
#X connect 3 0 1 1;
#X connect 4 0 3 0;
#X connect 5 0 7 0;
#X connect 6 0 0 0;
#X connect 7 0 10 0;
#X connect 8 0 5 0;
#X connect 8 1 1 0;
#X connect 9 0 2 0;
#X connect 10 0 6 0;
#X connect 11 0 16 0;
#X connect 12 0 8 0;
#X connect 13 0 9 0;
#X connect 14 0 4 0;
#X connect 16 0 15 0;
#X connect 17 0 19 0;
#X connect 18 0 16 1;
#X connect 19 0 18 0;
#X restore 916 530 pd kick;
#X obj 693 528 catch~ hat;
#X obj 243 516 catch~ kick;
#X obj 333 519 catch~ snare;
#X obj 186 376 s snare;
#X obj 516 525 catch~ tom2;
#X obj 428 522 catch~ tom1;
#X obj 603 527 catch~ tom3;
#N canvas 0 22 630 688 sliderBrouter 0;
#X obj -63 183 i;
#X obj -60 121 hsl 128 15 0 1 0 0 empty empty empty -2 -8 0 10 -262144
-1 -1 0 1;
#X obj -63 149 * 7;
#X obj -80 425 spigot;
#X obj -55 452 spigot;
#X obj -32 477 spigot;
#X obj -9 497 spigot;
#X obj 15 517 spigot;
#X msg -63 276 \$1 1 0;
#X obj -63 337 unpack;
#X obj -43 365 unpack;
#X obj -21 390 unpack;
#X obj 1 418 unpack;
#X obj 19 439 unpack;
#X obj -240 365 inlet;
#X floatatom 6 233 5 0 0 0 - - -;
#X obj -168 525 send b0;
#X obj -93 551 send b1;
#X obj -42 572 send b2;
#X obj -8 618 send b3;
#X obj 47 363 unpack;
#X obj 106 396 unpack;
#X obj 41 393 spigot;
#X obj 137 498 spigot;
#X obj 25 592 send b4;
#X obj 135 565 send b6;
#X obj 66 556 send b5;
#X obj -63 312 route 0 1 2 3 4 5 6;
#X obj -65 55 inlet;
#X connect 0 0 8 0;
#X connect 0 0 15 0;
#X connect 1 0 2 0;
#X connect 2 0 0 0;
#X connect 3 0 16 0;
#X connect 4 0 17 0;
#X connect 5 0 18 0;
#X connect 6 0 19 0;
#X connect 7 0 24 0;
#X connect 8 0 27 0;
#X connect 9 0 3 1;
#X connect 9 1 4 1;
#X connect 9 1 5 1;
#X connect 9 1 6 1;
#X connect 9 1 7 1;
#X connect 10 0 4 1;
#X connect 10 1 3 1;
#X connect 10 1 5 1;
#X connect 10 1 6 1;
#X connect 10 1 7 1;
#X connect 11 0 5 1;
#X connect 12 0 6 1;
#X connect 12 1 7 1;
#X connect 12 1 5 1;
#X connect 12 1 4 1;
#X connect 12 1 3 1;
#X connect 13 0 7 1;
#X connect 13 1 6 1;
#X connect 13 1 5 1;
#X connect 13 1 4 1;
#X connect 13 1 3 1;
#X connect 14 0 3 0;
#X connect 14 0 4 0;
#X connect 14 0 5 0;
#X connect 14 0 6 0;
#X connect 14 0 7 0;
#X connect 14 0 22 0;
#X connect 14 0 23 0;
#X connect 20 0 22 1;
#X connect 20 1 22 1;
#X connect 21 0 23 1;
#X connect 21 1 23 1;
#X connect 21 1 7 1;
#X connect 21 1 6 1;
#X connect 21 1 5 1;
#X connect 21 1 4 1;
#X connect 21 1 3 1;
#X connect 22 0 26 0;
#X connect 23 0 25 0;
#X connect 27 0 9 0;
#X connect 27 1 10 0;
#X connect 27 2 11 0;
#X connect 27 3 12 0;
#X connect 27 4 13 0;
#X connect 27 5 20 0;
#X connect 27 6 21 0;
#X connect 28 0 1 0;
#X restore -261 261 pd sliderBrouter;
#X obj -261 232 r Channel-B;
#X obj -259 298 r Channel-C;
#N canvas 0 22 630 688 sliderCrouter 0;
#X obj -63 183 i;
#X obj -60 121 hsl 128 15 0 1 0 0 empty empty empty -2 -8 0 10 -262144
-1 -1 0 1;
#X obj -63 149 * 7;
#X obj -80 425 spigot;
#X obj -55 452 spigot;
#X obj -32 477 spigot;
#X obj -9 497 spigot;
#X obj 15 517 spigot;
#X msg -63 276 \$1 1 0;
#X obj -63 337 unpack;
#X obj -43 365 unpack;
#X obj -21 390 unpack;
#X obj 1 418 unpack;
#X obj 19 439 unpack;
#X obj -240 365 inlet;
#X obj 47 363 unpack;
#X obj 106 396 unpack;
#X obj 41 393 spigot;
#X obj 137 498 spigot;
#X obj -63 312 route 0 1 2 3 4 5 6;
#X obj -168 525 send c0;
#X obj -93 551 send c1;
#X obj -42 572 send c2;
#X obj -8 618 send c3;
#X obj 25 592 send c4;
#X obj 66 556 send c5;
#X obj 135 565 send c6;
#X obj -65 55 inlet;
#X connect 0 0 8 0;
#X connect 1 0 2 0;
#X connect 2 0 0 0;
#X connect 3 0 20 0;
#X connect 4 0 21 0;
#X connect 5 0 22 0;
#X connect 6 0 23 0;
#X connect 7 0 24 0;
#X connect 8 0 19 0;
#X connect 9 0 3 1;
#X connect 9 1 4 1;
#X connect 9 1 5 1;
#X connect 9 1 6 1;
#X connect 9 1 7 1;
#X connect 10 0 4 1;
#X connect 10 1 3 1;
#X connect 10 1 5 1;
#X connect 10 1 6 1;
#X connect 10 1 7 1;
#X connect 11 0 5 1;
#X connect 12 0 6 1;
#X connect 12 1 7 1;
#X connect 12 1 5 1;
#X connect 12 1 4 1;
#X connect 12 1 3 1;
#X connect 13 0 7 1;
#X connect 13 1 6 1;
#X connect 13 1 5 1;
#X connect 13 1 4 1;
#X connect 13 1 3 1;
#X connect 14 0 3 0;
#X connect 14 0 4 0;
#X connect 14 0 5 0;
#X connect 14 0 6 0;
#X connect 14 0 7 0;
#X connect 14 0 17 0;
#X connect 14 0 18 0;
#X connect 15 0 17 1;
#X connect 15 1 17 1;
#X connect 16 0 18 1;
#X connect 16 1 18 1;
#X connect 16 1 7 1;
#X connect 16 1 6 1;
#X connect 16 1 5 1;
#X connect 16 1 4 1;
#X connect 16 1 3 1;
#X connect 17 0 25 0;
#X connect 18 0 26 0;
#X connect 19 0 9 0;
#X connect 19 1 10 0;
#X connect 19 2 11 0;
#X connect 19 3 12 0;
#X connect 19 4 13 0;
#X connect 19 5 15 0;
#X connect 19 6 16 0;
#X connect 27 0 1 0;
#X restore -259 327 pd sliderCrouter;
#N canvas 0 22 630 688 sliderCrouter 0;
#X obj -63 183 i;
#X obj -60 121 hsl 128 15 0 1 0 0 empty empty empty -2 -8 0 10 -262144
-1 -1 0 1;
#X obj -63 149 * 7;
#X obj -80 425 spigot;
#X obj -55 452 spigot;
#X obj -32 477 spigot;
#X obj -9 497 spigot;
#X obj 15 517 spigot;
#X msg -63 276 \$1 1 0;
#X obj -63 337 unpack;
#X obj -43 365 unpack;
#X obj -21 390 unpack;
#X obj 1 418 unpack;
#X obj 19 439 unpack;
#X obj -240 365 inlet;
#X floatatom 6 233 5 0 0 0 - - -;
#X obj 47 363 unpack;
#X obj 106 396 unpack;
#X obj 41 393 spigot;
#X obj 137 498 spigot;
#X obj -63 312 route 0 1 2 3 4 5 6;
#X obj -168 525 send d0;
#X obj -93 551 send d1;
#X obj -42 572 send d2;
#X obj -8 618 send d3;
#X obj 25 592 send d4;
#X obj 66 556 send d5;
#X obj 135 565 send d6;
#X obj -65 55 inlet;
#X connect 0 0 8 0;
#X connect 0 0 15 0;
#X connect 1 0 2 0;
#X connect 2 0 0 0;
#X connect 3 0 21 0;
#X connect 4 0 22 0;
#X connect 5 0 23 0;
#X connect 6 0 24 0;
#X connect 7 0 25 0;
#X connect 8 0 20 0;
#X connect 9 0 3 1;
#X connect 9 1 4 1;
#X connect 9 1 5 1;
#X connect 9 1 6 1;
#X connect 9 1 7 1;
#X connect 10 0 4 1;
#X connect 10 1 3 1;
#X connect 10 1 5 1;
#X connect 10 1 6 1;
#X connect 10 1 7 1;
#X connect 11 0 5 1;
#X connect 12 0 6 1;
#X connect 12 1 7 1;
#X connect 12 1 5 1;
#X connect 12 1 4 1;
#X connect 12 1 3 1;
#X connect 13 0 7 1;
#X connect 13 1 6 1;
#X connect 13 1 5 1;
#X connect 13 1 4 1;
#X connect 13 1 3 1;
#X connect 14 0 3 0;
#X connect 14 0 4 0;
#X connect 14 0 5 0;
#X connect 14 0 6 0;
#X connect 14 0 7 0;
#X connect 14 0 18 0;
#X connect 14 0 19 0;
#X connect 16 0 18 1;
#X connect 16 1 18 1;
#X connect 17 0 19 1;
#X connect 17 1 19 1;
#X connect 17 1 7 1;
#X connect 17 1 6 1;
#X connect 17 1 5 1;
#X connect 17 1 4 1;
#X connect 17 1 3 1;
#X connect 18 0 26 0;
#X connect 19 0 27 0;
#X connect 20 0 9 0;
#X connect 20 1 10 0;
#X connect 20 2 11 0;
#X connect 20 3 12 0;
#X connect 20 4 13 0;
#X connect 20 5 16 0;
#X connect 20 6 17 0;
#X connect 28 0 1 0;
#X restore -251 410 pd sliderCrouter;
#X obj -251 381 r Channel-D;
#X obj 164 273 route 0 1 2 3 4 5 6 7;
#X obj 208 410 s tom1;
#X obj 232 310 bng 15 250 50 0 empty empty empty 17 7 0 10 -262144
-1 -1;
#X obj 232 432 s tom2;
#X obj 254 311 bng 15 250 50 0 empty empty empty 17 7 0 10 -262144
-1 -1;
#X obj 255 455 s tom3;
#X obj 1067 470 hsl 128 15 0 1 0 0 empty empty empty -2 -8 0 10 -262144
-1 -1 0 1;
#X obj 164 110 * 6;
#X obj 969 260 r a0;
#X obj 1069 260 r b0;
#X obj 1064 408 r c0;
#X obj -114 168 r Channel-A;
#X connect 0 0 2 0;
#X connect 1 0 5 1;
#X connect 2 0 39 0;
#X connect 3 0 17 0;
#X connect 4 0 5 0;
#X connect 5 0 10 0;
#X connect 6 0 11 0;
#X connect 7 0 22 0;
#X connect 8 0 33 0;
#X connect 9 0 12 0;
#X connect 10 0 32 0;
#X connect 14 0 18 1;
#X connect 15 0 18 2;
#X connect 16 0 18 0;
#X connect 17 0 4 0;
#X connect 19 0 13 0;
#X connect 19 0 13 1;
#X connect 20 0 13 0;
#X connect 20 0 13 1;
#X connect 21 0 13 0;
#X connect 21 0 13 1;
#X connect 23 0 13 0;
#X connect 23 0 13 1;
#X connect 24 0 13 0;
#X connect 24 0 13 1;
#X connect 25 0 13 0;
#X connect 25 0 13 1;
#X connect 27 0 26 0;
#X connect 28 0 29 0;
#X connect 31 0 30 0;
#X connect 32 0 6 0;
#X connect 32 1 7 0;
#X connect 32 2 8 0;
#X connect 32 3 34 0;
#X connect 32 4 36 0;
#X connect 32 5 9 0;
#X connect 34 0 35 0;
#X connect 36 0 37 0;
#X connect 38 0 18 3;
#X connect 39 0 1 0;
#X connect 40 0 14 0;
#X connect 41 0 15 0;
#X connect 42 0 38 0;
#X connect 43 0 26 1;
#X connect 43 0 29 1;
#X connect 43 0 30 1;
