#N canvas 69 23 1286 688 10;
#X obj 162 16 r Channel-A;
#X obj 164 144 i;
#X obj 167 82 hsl 128 15 0 1 0 0 empty empty empty -2 -8 0 10 -262144
-1 -1 0 1;
#X obj 64 -21 r Channel-Push;
#X msg 64 46 1;
#X obj 164 187 pack;
#X obj 164 308 bng 15 250 50 0 empty empty empty 17 7 0 10 -262144
-1 -1;
#X obj 186 309 bng 15 250 50 0 empty empty empty 17 7 0 10 -262144
-1 -1;
#X obj 208 308 bng 15 250 50 0 empty empty empty 17 7 0 10 -262144
-1 -1;
#X obj 281 316 bng 15 250 50 0 empty empty empty 17 7 0 10 -262144
-1 -1;
#X msg 164 237 \$2 \$1;
#X obj 164 342 s kick;
#X obj 279 347 s hat;
#X obj 410 576 dac~;
#X obj 972 352 hsl 128 15 0 1 0 0 empty empty empty -2 -8 0 10 -262144
-1 -1 0 1;
#X obj 1072 322 hsl 128 15 0 1 0 0 empty empty empty -2 -8 0 10 -262144
-1 -1 0 1;
#X obj 885 437 r kick;
#X obj 353 236 r snare;
#X obj 65 16 sel 1;
#N canvas 0 22 984 516 kick 0;
#X obj 612 318 osc~;
#X obj 702 158 f;
#X obj 746 113 + 20;
#X obj 846 115 + 20;
#X obj 846 71 * 1000;
#X obj 613 146 f;
#X obj 614 259 line~;
#X obj 614 180 pack f f;
#X obj 611 110 t b b b;
#X obj 746 69 * 200;
#X msg 621 218 \$1 \, 0 \$2;
#X obj 612 352 *~ 0.5;
#X obj 609 59 inlet;
#X obj 744 35 inlet;
#X obj 848 37 inlet;
#X obj 610 413 throw~ kick;
#X obj 612 384 *~ 1;
#X obj 917 32 inlet;
#X obj 840 266 line;
#X msg 849 216 \$1 5;
#X connect 0 0 11 0;
#X connect 1 0 7 1;
#X connect 2 0 5 1;
#X connect 3 0 1 1;
#X connect 4 0 3 0;
#X connect 5 0 7 0;
#X connect 6 0 0 0;
#X connect 7 0 10 0;
#X connect 8 0 5 0;
#X connect 8 1 1 0;
#X connect 9 0 2 0;
#X connect 10 0 6 0;
#X connect 11 0 16 0;
#X connect 12 0 8 0;
#X connect 13 0 9 0;
#X connect 14 0 4 0;
#X connect 16 0 15 0;
#X connect 17 0 19 0;
#X connect 18 0 16 1;
#X connect 19 0 18 0;
#X restore 916 530 pd kick;
#N canvas 0 22 737 591 snare 0;
#X obj 307 149 noise~;
#X obj 344 310 *~;
#X obj 354 274 line~;
#X obj 345 336 *~ 0.5;
#X obj 397 115 inlet;
#X obj 455 320 *~;
#X obj 465 284 line~;
#X obj 383 162 t b b b;
#X obj 356 428 *~ 0.5;
#X obj 414 429 *~ 0.5;
#X msg 597 333 1;
#X obj 577 298 t f b f;
#X obj 601 383 -;
#X obj 578 263 inlet;
#X obj 445 190 i 40;
#X obj 305 185 hip~ 440;
#X msg 464 256 1 \, 0 \$1;
#X obj 373 204 i 40;
#X msg 353 246 1 \, 0 \$1;
#X obj 482 65 inlet;
#X obj 481 99 * 100;
#X obj 683 361 inlet;
#X obj 354 469 *~ 1;
#X obj 353 531 throw~ snare;
#X obj 481 120 + 20;
#X obj 679 422 line;
#X msg 682 391 \$1 5;
#X connect 0 0 15 0;
#X connect 1 0 3 0;
#X connect 2 0 1 1;
#X connect 3 0 8 0;
#X connect 4 0 7 0;
#X connect 5 0 9 0;
#X connect 6 0 5 1;
#X connect 7 0 17 0;
#X connect 7 2 14 0;
#X connect 8 0 22 0;
#X connect 9 0 22 0;
#X connect 10 0 12 0;
#X connect 11 0 8 1;
#X connect 11 1 10 0;
#X connect 11 2 12 1;
#X connect 12 0 9 1;
#X connect 13 0 11 0;
#X connect 14 0 16 0;
#X connect 15 0 1 0;
#X connect 16 0 6 0;
#X connect 17 0 18 0;
#X connect 18 0 2 0;
#X connect 19 0 20 0;
#X connect 20 0 24 0;
#X connect 21 0 26 0;
#X connect 22 0 23 0;
#X connect 24 0 14 1;
#X connect 24 0 17 1;
#X connect 25 0 22 1;
#X connect 26 0 25 0;
#X restore 388 339 pd snare;
#X obj 693 528 catch~ hat;
#X obj 243 516 catch~ kick;
#X obj 333 519 catch~ snare;
#X obj 186 376 s snare;
#X obj 516 525 catch~ tom2;
#X obj 428 522 catch~ tom1;
#X obj 603 527 catch~ tom3;
#X obj 367 19 hsl 128 15 0 1 0 0 empty empty empty -2 -8 0 10 -262144
-1 -1 0 1;
#N canvas 0 22 829 594 tom1 0;
#X obj 458 176 *~;
#X obj 455 136 osc~;
#X obj 452 75 * 60;
#X obj 454 102 + 100;
#X obj 371 129 line~;
#X obj 468 223 *~ 0.5;
#X obj 367 2 inlet;
#X obj 457 42 inlet;
#X obj 478 333 throw~ tom1;
#X obj 478 276 *~ 1;
#X obj 521 -36 inlet;
#X obj 368 47 i 200;
#X obj 593 7 inlet;
#X obj 522 -5 * 500;
#X msg 369 76 1 \, 0 \$1;
#X obj 564 137 line;
#X msg 573 87 \$1 5;
#X connect 0 0 5 0;
#X connect 1 0 0 0;
#X connect 2 0 3 0;
#X connect 3 0 1 0;
#X connect 4 0 0 1;
#X connect 5 0 9 0;
#X connect 6 0 11 0;
#X connect 7 0 2 0;
#X connect 9 0 8 0;
#X connect 10 0 13 0;
#X connect 11 0 14 0;
#X connect 12 0 16 0;
#X connect 13 0 11 1;
#X connect 14 0 4 0;
#X connect 15 0 9 1;
#X connect 16 0 15 0;
#X restore 337 122 pd tom1;
#X obj 292 2 r tom1;
#N canvas 0 22 630 688 sliderBrouter 0;
#X obj -63 183 i;
#X obj -60 121 hsl 128 15 0 1 0 0 empty empty empty -2 -8 0 10 -262144
-1 -1 0 1;
#X obj -63 149 * 7;
#X obj -80 425 spigot;
#X obj -55 452 spigot;
#X obj -32 477 spigot;
#X obj -9 497 spigot;
#X obj 15 517 spigot;
#X msg -63 276 \$1 1 0;
#X obj -63 337 unpack;
#X obj -43 365 unpack;
#X obj -21 390 unpack;
#X obj 1 418 unpack;
#X obj 19 439 unpack;
#X obj -240 365 inlet;
#X floatatom 6 233 5 0 0 0 - - -;
#X obj -168 525 send b0;
#X obj -93 551 send b1;
#X obj -42 572 send b2;
#X obj -8 618 send b3;
#X obj 47 363 unpack;
#X obj 106 396 unpack;
#X obj 41 393 spigot;
#X obj 137 498 spigot;
#X obj 25 592 send b4;
#X obj 135 565 send b6;
#X obj 66 556 send b5;
#X obj -63 312 route 0 1 2 3 4 5 6;
#X obj -65 55 inlet;
#X connect 0 0 8 0;
#X connect 0 0 15 0;
#X connect 1 0 2 0;
#X connect 2 0 0 0;
#X connect 3 0 16 0;
#X connect 4 0 17 0;
#X connect 5 0 18 0;
#X connect 6 0 19 0;
#X connect 7 0 24 0;
#X connect 8 0 27 0;
#X connect 9 0 3 1;
#X connect 9 1 4 1;
#X connect 9 1 5 1;
#X connect 9 1 6 1;
#X connect 9 1 7 1;
#X connect 10 0 4 1;
#X connect 10 1 3 1;
#X connect 10 1 5 1;
#X connect 10 1 6 1;
#X connect 10 1 7 1;
#X connect 11 0 5 1;
#X connect 12 0 6 1;
#X connect 12 1 7 1;
#X connect 12 1 5 1;
#X connect 12 1 4 1;
#X connect 12 1 3 1;
#X connect 13 0 7 1;
#X connect 13 1 6 1;
#X connect 13 1 5 1;
#X connect 13 1 4 1;
#X connect 13 1 3 1;
#X connect 14 0 3 0;
#X connect 14 0 4 0;
#X connect 14 0 5 0;
#X connect 14 0 6 0;
#X connect 14 0 7 0;
#X connect 14 0 22 0;
#X connect 14 0 23 0;
#X connect 20 0 22 1;
#X connect 20 1 22 1;
#X connect 21 0 23 1;
#X connect 21 1 23 1;
#X connect 21 1 7 1;
#X connect 21 1 6 1;
#X connect 21 1 5 1;
#X connect 21 1 4 1;
#X connect 21 1 3 1;
#X connect 22 0 26 0;
#X connect 23 0 25 0;
#X connect 27 0 9 0;
#X connect 27 1 10 0;
#X connect 27 2 11 0;
#X connect 27 3 12 0;
#X connect 27 4 13 0;
#X connect 27 5 20 0;
#X connect 27 6 21 0;
#X connect 28 0 1 0;
#X restore -261 261 pd sliderBrouter;
#X obj -261 232 r Channel-B;
#X obj -259 298 r Channel-C;
#N canvas 0 22 630 688 sliderCrouter 0;
#X obj -63 183 i;
#X obj -60 121 hsl 128 15 0 1 0 0 empty empty empty -2 -8 0 10 -262144
-1 -1 0 1;
#X obj -63 149 * 7;
#X obj -80 425 spigot;
#X obj -55 452 spigot;
#X obj -32 477 spigot;
#X obj -9 497 spigot;
#X obj 15 517 spigot;
#X msg -63 276 \$1 1 0;
#X obj -63 337 unpack;
#X obj -43 365 unpack;
#X obj -21 390 unpack;
#X obj 1 418 unpack;
#X obj 19 439 unpack;
#X obj -240 365 inlet;
#X obj 47 363 unpack;
#X obj 106 396 unpack;
#X obj 41 393 spigot;
#X obj 137 498 spigot;
#X obj -63 312 route 0 1 2 3 4 5 6;
#X obj -168 525 send c0;
#X obj -93 551 send c1;
#X obj -42 572 send c2;
#X obj -8 618 send c3;
#X obj 25 592 send c4;
#X obj 66 556 send c5;
#X obj 135 565 send c6;
#X obj -65 55 inlet;
#X connect 0 0 8 0;
#X connect 1 0 2 0;
#X connect 2 0 0 0;
#X connect 3 0 20 0;
#X connect 4 0 21 0;
#X connect 5 0 22 0;
#X connect 6 0 23 0;
#X connect 7 0 24 0;
#X connect 8 0 19 0;
#X connect 9 0 3 1;
#X connect 9 1 4 1;
#X connect 9 1 5 1;
#X connect 9 1 6 1;
#X connect 9 1 7 1;
#X connect 10 0 4 1;
#X connect 10 1 3 1;
#X connect 10 1 5 1;
#X connect 10 1 6 1;
#X connect 10 1 7 1;
#X connect 11 0 5 1;
#X connect 12 0 6 1;
#X connect 12 1 7 1;
#X connect 12 1 5 1;
#X connect 12 1 4 1;
#X connect 12 1 3 1;
#X connect 13 0 7 1;
#X connect 13 1 6 1;
#X connect 13 1 5 1;
#X connect 13 1 4 1;
#X connect 13 1 3 1;
#X connect 14 0 3 0;
#X connect 14 0 4 0;
#X connect 14 0 5 0;
#X connect 14 0 6 0;
#X connect 14 0 7 0;
#X connect 14 0 17 0;
#X connect 14 0 18 0;
#X connect 15 0 17 1;
#X connect 15 1 17 1;
#X connect 16 0 18 1;
#X connect 16 1 18 1;
#X connect 16 1 7 1;
#X connect 16 1 6 1;
#X connect 16 1 5 1;
#X connect 16 1 4 1;
#X connect 16 1 3 1;
#X connect 17 0 25 0;
#X connect 18 0 26 0;
#X connect 19 0 9 0;
#X connect 19 1 10 0;
#X connect 19 2 11 0;
#X connect 19 3 12 0;
#X connect 19 4 13 0;
#X connect 19 5 15 0;
#X connect 19 6 16 0;
#X connect 27 0 1 0;
#X restore -259 327 pd sliderCrouter;
#N canvas 0 22 630 688 sliderCrouter 0;
#X obj -63 183 i;
#X obj -60 121 hsl 128 15 0 1 0 0 empty empty empty -2 -8 0 10 -262144
-1 -1 0 1;
#X obj -63 149 * 7;
#X obj -80 425 spigot;
#X obj -55 452 spigot;
#X obj -32 477 spigot;
#X obj -9 497 spigot;
#X obj 15 517 spigot;
#X msg -63 276 \$1 1 0;
#X obj -63 337 unpack;
#X obj -43 365 unpack;
#X obj -21 390 unpack;
#X obj 1 418 unpack;
#X obj 19 439 unpack;
#X obj -240 365 inlet;
#X floatatom 6 233 5 0 0 0 - - -;
#X obj 47 363 unpack;
#X obj 106 396 unpack;
#X obj 41 393 spigot;
#X obj 137 498 spigot;
#X obj -63 312 route 0 1 2 3 4 5 6;
#X obj -168 525 send d0;
#X obj -93 551 send d1;
#X obj -42 572 send d2;
#X obj -8 618 send d3;
#X obj 25 592 send d4;
#X obj 66 556 send d5;
#X obj 135 565 send d6;
#X obj -65 55 inlet;
#X connect 0 0 8 0;
#X connect 0 0 15 0;
#X connect 1 0 2 0;
#X connect 2 0 0 0;
#X connect 3 0 21 0;
#X connect 4 0 22 0;
#X connect 5 0 23 0;
#X connect 6 0 24 0;
#X connect 7 0 25 0;
#X connect 8 0 20 0;
#X connect 9 0 3 1;
#X connect 9 1 4 1;
#X connect 9 1 5 1;
#X connect 9 1 6 1;
#X connect 9 1 7 1;
#X connect 10 0 4 1;
#X connect 10 1 3 1;
#X connect 10 1 5 1;
#X connect 10 1 6 1;
#X connect 10 1 7 1;
#X connect 11 0 5 1;
#X connect 12 0 6 1;
#X connect 12 1 7 1;
#X connect 12 1 5 1;
#X connect 12 1 4 1;
#X connect 12 1 3 1;
#X connect 13 0 7 1;
#X connect 13 1 6 1;
#X connect 13 1 5 1;
#X connect 13 1 4 1;
#X connect 13 1 3 1;
#X connect 14 0 3 0;
#X connect 14 0 4 0;
#X connect 14 0 5 0;
#X connect 14 0 6 0;
#X connect 14 0 7 0;
#X connect 14 0 18 0;
#X connect 14 0 19 0;
#X connect 16 0 18 1;
#X connect 16 1 18 1;
#X connect 17 0 19 1;
#X connect 17 1 19 1;
#X connect 17 1 7 1;
#X connect 17 1 6 1;
#X connect 17 1 5 1;
#X connect 17 1 4 1;
#X connect 17 1 3 1;
#X connect 18 0 26 0;
#X connect 19 0 27 0;
#X connect 20 0 9 0;
#X connect 20 1 10 0;
#X connect 20 2 11 0;
#X connect 20 3 12 0;
#X connect 20 4 13 0;
#X connect 20 5 16 0;
#X connect 20 6 17 0;
#X connect 28 0 1 0;
#X restore -251 410 pd sliderCrouter;
#X obj -251 381 r Channel-D;
#X obj 364 -17 r c3;
#X obj 335 -42 hsl 128 15 0 1 0 0 empty empty empty -2 -8 0 10 -262144
-1 -1 0 1;
#X obj 378 40 r d3;
#X obj 384 74 hsl 128 15 0 1 0 0 empty empty empty -2 -8 0 10 -262144
-1 -1 0 1;
#X obj 164 273 route 0 1 2 3 4 5 6 7;
#X obj 208 410 s tom1;
#X obj 232 310 bng 15 250 50 0 empty empty empty 17 7 0 10 -262144
-1 -1;
#X obj 232 432 s tom2;
#X obj 254 311 bng 15 250 50 0 empty empty empty 17 7 0 10 -262144
-1 -1;
#X obj 255 455 s tom3;
#X obj 588 22 hsl 128 15 0 1 0 0 empty empty empty -2 -8 0 10 -262144
-1 -1 0 1;
#X obj 556 -39 hsl 128 15 0 1 0 0 empty empty empty -2 -8 0 10 -262144
-1 -1 0 1;
#X obj 605 77 hsl 128 15 0 1 0 0 empty empty empty -2 -8 0 10 -262144
-1 -1 0 1;
#X obj 513 5 r tom2;
#X obj 553 -75 r b4;
#N canvas 0 22 829 594 tom2 0;
#X obj 458 176 *~;
#X obj 455 136 osc~;
#X obj 452 75 * 60;
#X obj 454 102 + 100;
#X obj 371 129 line~;
#X obj 468 223 *~ 0.5;
#X obj 367 2 inlet;
#X obj 457 42 inlet;
#X obj 478 276 *~ 1;
#X obj 521 -36 inlet;
#X obj 368 47 i 200;
#X obj 593 7 inlet;
#X obj 522 -5 * 500;
#X msg 369 76 1 \, 0 \$1;
#X obj 478 333 throw~ tom2;
#X obj 564 137 line;
#X msg 573 87 \$1 5;
#X connect 0 0 5 0;
#X connect 1 0 0 0;
#X connect 2 0 3 0;
#X connect 3 0 1 0;
#X connect 4 0 0 1;
#X connect 5 0 8 0;
#X connect 6 0 10 0;
#X connect 7 0 2 0;
#X connect 8 0 14 0;
#X connect 9 0 12 0;
#X connect 10 0 13 0;
#X connect 11 0 16 0;
#X connect 12 0 10 1;
#X connect 13 0 4 0;
#X connect 15 0 8 1;
#X connect 16 0 15 0;
#X restore 558 125 pd tom2;
#X obj 809 31 hsl 128 15 0 1 0 0 empty empty empty -2 -8 0 10 -262144
-1 -1 0 1;
#X obj 777 -30 hsl 128 15 0 1 0 0 empty empty empty -2 -8 0 10 -262144
-1 -1 0 1;
#X obj 826 86 hsl 128 15 0 1 0 0 empty empty empty -2 -8 0 10 -262144
-1 -1 0 1;
#N canvas 0 22 829 594 tom3 0;
#X obj 458 176 *~;
#X obj 455 136 osc~;
#X obj 452 75 * 60;
#X obj 454 102 + 100;
#X obj 371 129 line~;
#X obj 468 223 *~ 0.5;
#X obj 367 2 inlet;
#X obj 457 42 inlet;
#X obj 478 276 *~ 1;
#X obj 521 -36 inlet;
#X obj 368 47 i 200;
#X obj 593 7 inlet;
#X obj 522 -5 * 500;
#X msg 369 76 1 \, 0 \$1;
#X obj 478 333 throw~ tom3;
#X obj 564 137 line;
#X msg 573 87 \$1 5;
#X connect 0 0 5 0;
#X connect 1 0 0 0;
#X connect 2 0 3 0;
#X connect 3 0 1 0;
#X connect 4 0 0 1;
#X connect 5 0 8 0;
#X connect 6 0 10 0;
#X connect 7 0 2 0;
#X connect 8 0 14 0;
#X connect 9 0 12 0;
#X connect 10 0 13 0;
#X connect 11 0 16 0;
#X connect 12 0 10 1;
#X connect 13 0 4 0;
#X connect 15 0 8 1;
#X connect 16 0 15 0;
#X restore 779 134 pd tom3;
#X obj 734 14 r tom3;
#X obj 457 251 hsl 128 15 0 1 0 0 empty empty empty -2 -8 0 10 -262144
-1 -1 0 1;
#X obj 425 190 hsl 128 15 0 1 0 0 empty empty empty -2 -8 0 10 -262144
-1 -1 0 1;
#X obj 474 306 hsl 128 15 0 1 0 0 empty empty empty -2 -8 0 10 -262144
-1 -1 0 1;
#X obj 1067 470 hsl 128 15 0 1 0 0 empty empty empty -2 -8 0 10 -262144
-1 -1 0 1;
#X obj 164 110 * 6;
#X obj 969 260 r a0;
#X obj 1069 260 r b0;
#X obj 1064 408 r c0;
#X obj 422 154 r b1;
#X obj 454 215 r b2;
#X obj 468 272 r c2;
#X obj 332 -78 r b3;
#X obj 585 -14 r c4;
#X obj 599 43 r d4;
#X obj 774 -66 r b5;
#X obj 806 -5 r c5;
#X obj 820 52 r d5;
#X obj -114 168 r Channel-A;
#X connect 0 0 2 0;
#X connect 1 0 5 1;
#X connect 2 0 62 0;
#X connect 3 0 18 0;
#X connect 4 0 5 0;
#X connect 5 0 10 0;
#X connect 6 0 11 0;
#X connect 7 0 24 0;
#X connect 8 0 42 0;
#X connect 9 0 12 0;
#X connect 10 0 41 0;
#X connect 14 0 19 1;
#X connect 15 0 19 2;
#X connect 16 0 19 0;
#X connect 17 0 20 0;
#X connect 18 0 4 0;
#X connect 21 0 13 0;
#X connect 21 0 13 1;
#X connect 22 0 13 0;
#X connect 22 0 13 1;
#X connect 23 0 13 0;
#X connect 23 0 13 1;
#X connect 25 0 13 0;
#X connect 25 0 13 1;
#X connect 26 0 13 0;
#X connect 26 0 13 1;
#X connect 27 0 13 0;
#X connect 27 0 13 1;
#X connect 28 0 29 2;
#X connect 30 0 29 0;
#X connect 32 0 31 0;
#X connect 33 0 34 0;
#X connect 36 0 35 0;
#X connect 37 0 28 0;
#X connect 38 0 29 1;
#X connect 39 0 40 0;
#X connect 40 0 29 3;
#X connect 41 0 6 0;
#X connect 41 1 7 0;
#X connect 41 2 8 0;
#X connect 41 3 43 0;
#X connect 41 4 45 0;
#X connect 41 5 9 0;
#X connect 43 0 44 0;
#X connect 45 0 46 0;
#X connect 47 0 52 2;
#X connect 48 0 52 1;
#X connect 49 0 52 3;
#X connect 50 0 52 0;
#X connect 51 0 48 0;
#X connect 53 0 56 2;
#X connect 54 0 56 1;
#X connect 55 0 56 3;
#X connect 57 0 56 0;
#X connect 58 0 20 2;
#X connect 59 0 20 1;
#X connect 60 0 20 3;
#X connect 61 0 19 3;
#X connect 62 0 1 0;
#X connect 63 0 14 0;
#X connect 64 0 15 0;
#X connect 65 0 61 0;
#X connect 66 0 59 0;
#X connect 67 0 58 0;
#X connect 68 0 60 0;
#X connect 69 0 38 0;
#X connect 70 0 47 0;
#X connect 71 0 49 0;
#X connect 72 0 54 0;
#X connect 73 0 53 0;
#X connect 74 0 55 0;
#X connect 75 0 31 1;
#X connect 75 0 34 1;
#X connect 75 0 35 1;
