#N canvas 146 23 815 536 10;
#X obj 386 402 osc~;
#X obj 476 242 f;
#X obj 388 494 dac~;
#X obj 523 88 r Channel-A;
#X obj 520 180 + 20;
#X obj 620 182 + 20;
#X obj 620 138 * 1000;
#X obj 387 230 f;
#X floatatom 522 37 5 0 0 0 - - -;
#X floatatom 660 46 5 0 0 0 - - -;
#X obj 388 343 line~;
#X msg 395 302 \$1 \, 20 \$2;
#X obj 388 264 pack f f;
#X obj 385 194 t b b b;
#X obj 520 136 * 200;
#X obj 623 90 r Channel-B;
#X obj 385 161 r Channel-Push;
#X obj 311 112 bng 15 250 50 0 empty empty empty 17 7 0 10 -262144
-1 -1;
#X obj 389 440 *~ 0.7;
#X obj 523 304 print decay;
#X connect 0 0 18 0;
#X connect 1 0 12 1;
#X connect 1 0 19 0;
#X connect 3 0 14 0;
#X connect 4 0 7 1;
#X connect 5 0 1 1;
#X connect 6 0 5 0;
#X connect 7 0 12 0;
#X connect 8 0 14 0;
#X connect 9 0 6 0;
#X connect 10 0 0 0;
#X connect 11 0 10 0;
#X connect 12 0 11 0;
#X connect 13 0 7 0;
#X connect 13 1 1 0;
#X connect 14 0 4 0;
#X connect 15 0 6 0;
#X connect 16 0 13 0;
#X connect 17 0 13 0;
#X connect 18 0 2 0;
#X connect 18 0 2 1;
