#N canvas 80 23 1286 688 10;
#X obj 107 -295 r Channel-A;
#X obj 109 -167 i;
#X obj 112 -229 hsl 128 15 0 1 0 0 empty empty empty -2 -8 0 10 -262144
-1 -1 2100 1;
#X obj 9 -332 r Channel-Push;
#X msg 9 -265 1;
#X obj 109 -124 pack;
#X msg 109 -74 \$2 \$1;
#X obj 10 -295 sel 1;
#X obj 109 -38 route 0 1 2 3 4 5 6 7;
#N canvas 0 22 984 516 kick 0;
#X obj 612 318 osc~;
#X obj 702 158 f;
#X obj 746 113 + 20;
#X obj 846 115 + 20;
#X obj 846 71 * 1000;
#X obj 613 146 f;
#X obj 614 259 line~;
#X obj 614 180 pack f f;
#X obj 611 110 t b b b;
#X obj 746 69 * 200;
#X msg 621 218 \$1 \, 0 \$2;
#X obj 612 352 *~ 0.5;
#X obj 609 59 inlet;
#X obj 744 35 inlet;
#X obj 848 37 inlet;
#X obj 612 384 *~ 1;
#X obj 917 32 inlet;
#X obj 840 266 line;
#X msg 849 216 \$1 5;
#X obj 610 413 outlet~;
#X connect 0 0 11 0;
#X connect 1 0 7 1;
#X connect 2 0 5 1;
#X connect 3 0 1 1;
#X connect 4 0 3 0;
#X connect 5 0 7 0;
#X connect 6 0 0 0;
#X connect 7 0 10 0;
#X connect 8 0 5 0;
#X connect 8 1 1 0;
#X connect 9 0 2 0;
#X connect 10 0 6 0;
#X connect 11 0 15 0;
#X connect 12 0 8 0;
#X connect 13 0 9 0;
#X connect 14 0 4 0;
#X connect 15 0 19 0;
#X connect 16 0 18 0;
#X connect 17 0 15 1;
#X connect 18 0 17 0;
#X restore 94 147 pd kick;
#X obj 148 231 dac~;
#N canvas 0 22 737 591 snare 0;
#X obj 307 149 noise~;
#X obj 344 310 *~;
#X obj 354 274 line~;
#X obj 345 336 *~ 0.5;
#X obj 397 115 inlet;
#N canvas 485 119 450 300 tri 0;
#X obj 111 150 phasor~;
#X msg 110 116 440;
#X obj 111 178 *~ 2;
#X obj 113 203 -~ 1;
#X msg 158 111 0;
#X obj 177 153 phasor~;
#X obj 177 181 *~ 2;
#X obj 179 206 -~ 1;
#X obj 137 239 +~;
#X obj 110 81 t b b b;
#X obj 139 289 outlet~;
#X obj 108 37 inlet;
#X obj 141 263 *~ 0.5;
#X connect 0 0 2 0;
#X connect 1 0 0 0;
#X connect 2 0 3 0;
#X connect 3 0 8 0;
#X connect 4 0 0 1;
#X connect 4 0 5 1;
#X connect 5 0 6 0;
#X connect 6 0 7 0;
#X connect 7 0 8 1;
#X connect 8 0 12 0;
#X connect 9 0 1 0;
#X connect 9 1 4 0;
#X connect 11 0 9 0;
#X connect 12 0 10 0;
#X restore 439 218 pd tri;
#X obj 455 320 *~;
#X obj 465 284 line~;
#X obj 383 162 t b b b;
#X obj 356 428 *~ 0.5;
#X obj 414 429 *~ 0.5;
#X msg 597 333 1;
#X obj 577 298 t f b f;
#X obj 601 383 -;
#X obj 578 263 inlet;
#X obj 445 190 i 40;
#X obj 305 185 hip~ 440;
#X msg 464 256 1 \, 0 \$1;
#X obj 373 204 i 40;
#X msg 353 246 1 \, 0 \$1;
#X obj 482 65 inlet;
#X obj 481 99 * 100;
#X obj 683 361 inlet;
#X obj 354 469 *~ 1;
#X obj 481 120 + 20;
#X obj 679 422 line;
#X msg 682 391 \$1 5;
#X obj 353 531 outlet~;
#X connect 0 0 16 0;
#X connect 1 0 3 0;
#X connect 2 0 1 1;
#X connect 3 0 9 0;
#X connect 4 0 8 0;
#X connect 5 0 6 0;
#X connect 6 0 10 0;
#X connect 7 0 6 1;
#X connect 8 0 18 0;
#X connect 8 1 5 0;
#X connect 8 2 15 0;
#X connect 9 0 23 0;
#X connect 10 0 23 0;
#X connect 11 0 13 0;
#X connect 12 0 9 1;
#X connect 12 1 11 0;
#X connect 12 2 13 1;
#X connect 13 0 10 1;
#X connect 14 0 12 0;
#X connect 15 0 17 0;
#X connect 16 0 1 0;
#X connect 17 0 7 0;
#X connect 18 0 19 0;
#X connect 19 0 2 0;
#X connect 20 0 21 0;
#X connect 21 0 24 0;
#X connect 22 0 26 0;
#X connect 23 0 27 0;
#X connect 24 0 15 1;
#X connect 24 0 18 1;
#X connect 25 0 23 1;
#X connect 26 0 25 0;
#X restore 241 162 pd snare;
#X obj 275 -23 r b1;
#X floatatom 178 -106 5 0 0 0 - - -;
#X obj 109 -201 * 2;
#X obj 107 93 r b0;
#X obj 468 -229 hsl 128 15 0 1 0 0 empty empty empty -2 -8 0 10 -262144
-1 -1 2100 1;
#X floatatom 469 -138 5 0 0 0 - - -;
#X obj 468 -167 int;
#X obj 464 -202 * 2;
#X obj 475 -64 route 0 1;
#X obj 477 -24 unpack;
#X obj 544 -21 unpack;
#X obj 433 56 spigot;
#X obj 493 58 spigot;
#X obj 341 -70 r Channel-B;
#X obj 406 130 s b0;
#X obj 273 -161 hsl 128 15 0 1 0 0 empty empty empty -2 -8 0 10 -262144
-1 -1 4700 1;
#X obj 408 98 hsl 128 15 0 1 0 0 empty empty empty -2 -8 0 10 -262144
-1 -1 4700 1;
#X obj 557 106 hsl 128 15 0 1 0 0 empty empty empty -2 -8 0 10 -262144
-1 -1 7800 1;
#X obj 555 138 s b1;
#X obj 470 -107 pack 1 1 0;
#X connect 0 0 2 0;
#X connect 1 0 5 1;
#X connect 1 0 13 0;
#X connect 2 0 14 0;
#X connect 2 0 16 0;
#X connect 3 0 7 0;
#X connect 4 0 5 0;
#X connect 5 0 6 0;
#X connect 6 0 8 0;
#X connect 7 0 4 0;
#X connect 8 0 9 0;
#X connect 8 1 11 0;
#X connect 9 0 10 0;
#X connect 9 0 10 1;
#X connect 11 0 10 0;
#X connect 11 0 10 1;
#X connect 12 0 11 1;
#X connect 14 0 1 0;
#X connect 15 0 9 1;
#X connect 16 0 19 0;
#X connect 17 0 31 0;
#X connect 18 0 17 0;
#X connect 19 0 18 0;
#X connect 20 0 21 0;
#X connect 20 1 22 0;
#X connect 21 0 23 1;
#X connect 21 1 24 1;
#X connect 22 0 24 1;
#X connect 22 1 23 1;
#X connect 23 0 28 0;
#X connect 24 0 29 0;
#X connect 25 0 23 0;
#X connect 25 0 24 0;
#X connect 27 0 23 0;
#X connect 27 0 24 0;
#X connect 28 0 26 0;
#X connect 29 0 30 0;
#X connect 31 0 20 0;
