#N canvas 69 23 1286 688 10;
#X obj 162 16 r Channel-A;
#X obj 164 144 i;
#X obj 167 82 hsl 128 15 0 1 0 0 empty empty empty -2 -8 0 10 -262144
-1 -1 0 1;
#X obj 64 -21 r Channel-Push;
#X msg 64 46 1;
#X obj 164 187 pack;
#X obj 164 308 bng 15 250 50 0 empty empty empty 17 7 0 10 -262144
-1 -1;
#X obj 186 309 bng 15 250 50 0 empty empty empty 17 7 0 10 -262144
-1 -1;
#X obj 208 308 bng 15 250 50 0 empty empty empty 17 7 0 10 -262144
-1 -1;
#X obj 281 316 bng 15 250 50 0 empty empty empty 17 7 0 10 -262144
-1 -1;
#X msg 164 237 \$2 \$1;
#X obj 164 342 s kick;
#X obj 279 347 s hat;
#X obj 65 16 sel 1;
#X obj 186 376 s snare;
#N canvas 0 22 630 688 sliderBrouter 0;
#X obj -63 183 i;
#X obj -60 121 hsl 128 15 0 1 0 0 empty empty empty -2 -8 0 10 -262144
-1 -1 0 1;
#X obj -63 149 * 7;
#X obj -80 425 spigot;
#X obj -55 452 spigot;
#X obj -32 477 spigot;
#X obj -9 497 spigot;
#X obj 15 517 spigot;
#X msg -63 276 \$1 1 0;
#X obj -63 337 unpack;
#X obj -43 365 unpack;
#X obj -21 390 unpack;
#X obj 1 418 unpack;
#X obj 19 439 unpack;
#X obj -240 365 inlet;
#X floatatom 6 233 5 0 0 0 - - -;
#X obj -168 525 send b0;
#X obj -93 551 send b1;
#X obj -42 572 send b2;
#X obj -8 618 send b3;
#X obj 47 363 unpack;
#X obj 106 396 unpack;
#X obj 41 393 spigot;
#X obj 137 498 spigot;
#X obj 25 592 send b4;
#X obj 135 565 send b6;
#X obj 66 556 send b5;
#X obj -63 312 route 0 1 2 3 4 5 6;
#X obj -65 55 inlet;
#X connect 0 0 8 0;
#X connect 0 0 15 0;
#X connect 1 0 2 0;
#X connect 2 0 0 0;
#X connect 3 0 16 0;
#X connect 4 0 17 0;
#X connect 5 0 18 0;
#X connect 6 0 19 0;
#X connect 7 0 24 0;
#X connect 8 0 27 0;
#X connect 9 0 3 1;
#X connect 9 1 4 1;
#X connect 9 1 5 1;
#X connect 9 1 6 1;
#X connect 9 1 7 1;
#X connect 10 0 4 1;
#X connect 10 1 3 1;
#X connect 10 1 5 1;
#X connect 10 1 6 1;
#X connect 10 1 7 1;
#X connect 11 0 5 1;
#X connect 12 0 6 1;
#X connect 12 1 7 1;
#X connect 12 1 5 1;
#X connect 12 1 4 1;
#X connect 12 1 3 1;
#X connect 13 0 7 1;
#X connect 13 1 6 1;
#X connect 13 1 5 1;
#X connect 13 1 4 1;
#X connect 13 1 3 1;
#X connect 14 0 3 0;
#X connect 14 0 4 0;
#X connect 14 0 5 0;
#X connect 14 0 6 0;
#X connect 14 0 7 0;
#X connect 14 0 22 0;
#X connect 14 0 23 0;
#X connect 20 0 22 1;
#X connect 20 1 22 1;
#X connect 21 0 23 1;
#X connect 21 1 23 1;
#X connect 21 1 7 1;
#X connect 21 1 6 1;
#X connect 21 1 5 1;
#X connect 21 1 4 1;
#X connect 21 1 3 1;
#X connect 22 0 26 0;
#X connect 23 0 25 0;
#X connect 27 0 9 0;
#X connect 27 1 10 0;
#X connect 27 2 11 0;
#X connect 27 3 12 0;
#X connect 27 4 13 0;
#X connect 27 5 20 0;
#X connect 27 6 21 0;
#X connect 28 0 1 0;
#X restore -261 261 pd sliderBrouter;
#X obj -261 232 r Channel-B;
#X obj -259 298 r Channel-C;
#N canvas 0 22 630 688 sliderCrouter 0;
#X obj -63 183 i;
#X obj -60 121 hsl 128 15 0 1 0 0 empty empty empty -2 -8 0 10 -262144
-1 -1 0 1;
#X obj -63 149 * 7;
#X obj -80 425 spigot;
#X obj -55 452 spigot;
#X obj -32 477 spigot;
#X obj -9 497 spigot;
#X obj 15 517 spigot;
#X msg -63 276 \$1 1 0;
#X obj -63 337 unpack;
#X obj -43 365 unpack;
#X obj -21 390 unpack;
#X obj 1 418 unpack;
#X obj 19 439 unpack;
#X obj -240 365 inlet;
#X obj 47 363 unpack;
#X obj 106 396 unpack;
#X obj 41 393 spigot;
#X obj 137 498 spigot;
#X obj -63 312 route 0 1 2 3 4 5 6;
#X obj -168 525 send c0;
#X obj -93 551 send c1;
#X obj -42 572 send c2;
#X obj -8 618 send c3;
#X obj 25 592 send c4;
#X obj 66 556 send c5;
#X obj 135 565 send c6;
#X obj -65 55 inlet;
#X connect 0 0 8 0;
#X connect 1 0 2 0;
#X connect 2 0 0 0;
#X connect 3 0 20 0;
#X connect 4 0 21 0;
#X connect 5 0 22 0;
#X connect 6 0 23 0;
#X connect 7 0 24 0;
#X connect 8 0 19 0;
#X connect 9 0 3 1;
#X connect 9 1 4 1;
#X connect 9 1 5 1;
#X connect 9 1 6 1;
#X connect 9 1 7 1;
#X connect 10 0 4 1;
#X connect 10 1 3 1;
#X connect 10 1 5 1;
#X connect 10 1 6 1;
#X connect 10 1 7 1;
#X connect 11 0 5 1;
#X connect 12 0 6 1;
#X connect 12 1 7 1;
#X connect 12 1 5 1;
#X connect 12 1 4 1;
#X connect 12 1 3 1;
#X connect 13 0 7 1;
#X connect 13 1 6 1;
#X connect 13 1 5 1;
#X connect 13 1 4 1;
#X connect 13 1 3 1;
#X connect 14 0 3 0;
#X connect 14 0 4 0;
#X connect 14 0 5 0;
#X connect 14 0 6 0;
#X connect 14 0 7 0;
#X connect 14 0 17 0;
#X connect 14 0 18 0;
#X connect 15 0 17 1;
#X connect 15 1 17 1;
#X connect 16 0 18 1;
#X connect 16 1 18 1;
#X connect 16 1 7 1;
#X connect 16 1 6 1;
#X connect 16 1 5 1;
#X connect 16 1 4 1;
#X connect 16 1 3 1;
#X connect 17 0 25 0;
#X connect 18 0 26 0;
#X connect 19 0 9 0;
#X connect 19 1 10 0;
#X connect 19 2 11 0;
#X connect 19 3 12 0;
#X connect 19 4 13 0;
#X connect 19 5 15 0;
#X connect 19 6 16 0;
#X connect 27 0 1 0;
#X restore -259 327 pd sliderCrouter;
#N canvas 0 22 630 688 sliderCrouter 0;
#X obj -63 183 i;
#X obj -60 121 hsl 128 15 0 1 0 0 empty empty empty -2 -8 0 10 -262144
-1 -1 0 1;
#X obj -63 149 * 7;
#X obj -80 425 spigot;
#X obj -55 452 spigot;
#X obj -32 477 spigot;
#X obj -9 497 spigot;
#X obj 15 517 spigot;
#X msg -63 276 \$1 1 0;
#X obj -63 337 unpack;
#X obj -43 365 unpack;
#X obj -21 390 unpack;
#X obj 1 418 unpack;
#X obj 19 439 unpack;
#X obj -240 365 inlet;
#X floatatom 6 233 5 0 0 0 - - -;
#X obj 47 363 unpack;
#X obj 106 396 unpack;
#X obj 41 393 spigot;
#X obj 137 498 spigot;
#X obj -63 312 route 0 1 2 3 4 5 6;
#X obj -168 525 send d0;
#X obj -93 551 send d1;
#X obj -42 572 send d2;
#X obj -8 618 send d3;
#X obj 25 592 send d4;
#X obj 66 556 send d5;
#X obj 135 565 send d6;
#X obj -65 55 inlet;
#X connect 0 0 8 0;
#X connect 0 0 15 0;
#X connect 1 0 2 0;
#X connect 2 0 0 0;
#X connect 3 0 21 0;
#X connect 4 0 22 0;
#X connect 5 0 23 0;
#X connect 6 0 24 0;
#X connect 7 0 25 0;
#X connect 8 0 20 0;
#X connect 9 0 3 1;
#X connect 9 1 4 1;
#X connect 9 1 5 1;
#X connect 9 1 6 1;
#X connect 9 1 7 1;
#X connect 10 0 4 1;
#X connect 10 1 3 1;
#X connect 10 1 5 1;
#X connect 10 1 6 1;
#X connect 10 1 7 1;
#X connect 11 0 5 1;
#X connect 12 0 6 1;
#X connect 12 1 7 1;
#X connect 12 1 5 1;
#X connect 12 1 4 1;
#X connect 12 1 3 1;
#X connect 13 0 7 1;
#X connect 13 1 6 1;
#X connect 13 1 5 1;
#X connect 13 1 4 1;
#X connect 13 1 3 1;
#X connect 14 0 3 0;
#X connect 14 0 4 0;
#X connect 14 0 5 0;
#X connect 14 0 6 0;
#X connect 14 0 7 0;
#X connect 14 0 18 0;
#X connect 14 0 19 0;
#X connect 16 0 18 1;
#X connect 16 1 18 1;
#X connect 17 0 19 1;
#X connect 17 1 19 1;
#X connect 17 1 7 1;
#X connect 17 1 6 1;
#X connect 17 1 5 1;
#X connect 17 1 4 1;
#X connect 17 1 3 1;
#X connect 18 0 26 0;
#X connect 19 0 27 0;
#X connect 20 0 9 0;
#X connect 20 1 10 0;
#X connect 20 2 11 0;
#X connect 20 3 12 0;
#X connect 20 4 13 0;
#X connect 20 5 16 0;
#X connect 20 6 17 0;
#X connect 28 0 1 0;
#X restore -251 410 pd sliderCrouter;
#X obj -251 381 r Channel-D;
#X obj 164 273 route 0 1 2 3 4 5 6 7;
#X obj 208 410 s tom1;
#X obj 232 310 bng 15 250 50 0 empty empty empty 17 7 0 10 -262144
-1 -1;
#X obj 232 432 s tom2;
#X obj 254 311 bng 15 250 50 0 empty empty empty 17 7 0 10 -262144
-1 -1;
#X obj 255 455 s tom3;
#X obj 164 110 * 6;
#X obj -114 168 r Channel-A;
#X connect 0 0 2 0;
#X connect 1 0 5 1;
#X connect 2 0 27 0;
#X connect 3 0 13 0;
#X connect 4 0 5 0;
#X connect 5 0 10 0;
#X connect 6 0 11 0;
#X connect 7 0 14 0;
#X connect 8 0 22 0;
#X connect 9 0 12 0;
#X connect 10 0 21 0;
#X connect 13 0 4 0;
#X connect 16 0 15 0;
#X connect 17 0 18 0;
#X connect 20 0 19 0;
#X connect 21 0 6 0;
#X connect 21 1 7 0;
#X connect 21 2 8 0;
#X connect 21 3 23 0;
#X connect 21 4 25 0;
#X connect 21 5 9 0;
#X connect 23 0 24 0;
#X connect 25 0 26 0;
#X connect 27 0 1 0;
#X connect 28 0 15 1;
#X connect 28 0 18 1;
#X connect 28 0 19 1;
