#N canvas 165 23 815 536 10;
#X obj 162 16 r Channel-A;
#X obj 164 144 i;
#X obj 167 82 hsl 128 15 0 1 0 0 empty empty empty -2 -8 0 10 -262144
-1 -1 0 1;
#X obj 310 18 r Channel-Push;
#X msg 312 81 1;
#X obj 164 187 pack;
#X obj 164 308 bng 15 250 50 0 empty empty empty 17 7 0 10 -262144
-1 -1;
#X obj 186 309 bng 15 250 50 0 empty empty empty 17 7 0 10 -262144
-1 -1;
#X obj 208 308 bng 15 250 50 0 empty empty empty 17 7 0 10 -262144
-1 -1;
#X obj 230 309 bng 15 250 50 0 empty empty empty 17 7 0 10 -262144
-1 -1;
#X msg 164 237 \$2 \$1;
#X obj 164 273 route 0 1 2 3 4;
#X obj 164 110 * 4;
#X obj 164 342 s kick;
#X obj 186 376 s snare;
#X obj 208 410 s tom;
#X obj 231 449 s hat;
#X obj 426 430 dac~;
#X obj 458 53 hsl 128 15 0 1 0 0 empty empty empty -2 -8 0 10 -262144
-1 -1 0 1;
#X obj 455 17 r Channel-D;
#X obj 746 -68 r Channel-B;
#X obj 846 -68 r Channel-C;
#X obj 749 24 hsl 128 15 0 1 0 0 empty empty empty -2 -8 0 10 -262144
-1 -1 0 1;
#X obj 849 -6 hsl 128 15 0 1 0 0 empty empty empty -2 -8 0 10 -262144
-1 -1 0 1;
#X obj 662 109 r kick;
#X obj 373 229 r snare;
#X obj 494 78 r tom;
#X obj 547 139 r hat;
#X obj 314 51 sel 1;
#N canvas 0 22 450 300 tom 0;
#X obj 458 176 *~;
#X obj 432 134 osc~;
#X obj 432 73 * 60;
#X obj 431 100 + 100;
#X msg 493 79 1 \, 0 200;
#X obj 495 132 line~;
#X obj 468 223 *~ 0.5;
#X obj 495 47 inlet;
#X obj 434 40 inlet;
#X obj 467 256 throw~ tom;
#X connect 0 0 6 0;
#X connect 1 0 0 0;
#X connect 2 0 3 0;
#X connect 3 0 1 0;
#X connect 4 0 5 0;
#X connect 5 0 0 1;
#X connect 6 0 9 0;
#X connect 7 0 4 0;
#X connect 8 0 2 0;
#X restore 455 111 pd tom;
#N canvas 0 22 450 300 kick 0;
#X obj 612 318 osc~;
#X obj 702 158 f;
#X obj 746 113 + 20;
#X obj 846 115 + 20;
#X obj 846 71 * 1000;
#X obj 613 146 f;
#X obj 614 259 line~;
#X obj 614 180 pack f f;
#X obj 611 110 t b b b;
#X obj 746 69 * 200;
#X msg 621 218 \$1 \, 0 \$2;
#X obj 612 352 *~ 0.5;
#X obj 609 59 inlet;
#X obj 744 35 inlet;
#X obj 848 37 inlet;
#X connect 0 0 11 0;
#X connect 1 0 7 1;
#X connect 2 0 5 1;
#X connect 3 0 1 1;
#X connect 4 0 3 0;
#X connect 5 0 7 0;
#X connect 6 0 0 0;
#X connect 7 0 10 0;
#X connect 8 0 5 0;
#X connect 8 1 1 0;
#X connect 9 0 2 0;
#X connect 10 0 6 0;
#X connect 12 0 8 0;
#X connect 13 0 9 0;
#X connect 14 0 4 0;
#X restore 693 180 pd kick;
#N canvas 0 22 579 459 hat 0;
#X obj 455 198 noise~;
#X obj 507 314 *~;
#X obj 552 242 line~;
#X obj 507 342 *~ 0.5;
#X obj 548 144 inlet;
#X obj 449 252 hip~ 12000;
#X obj 451 279 hip~ 12000;
#X msg 550 189 1 \, 0 20;
#X obj 506 383 throw~ hat;
#X connect 0 0 5 0;
#X connect 1 0 3 0;
#X connect 2 0 1 1;
#X connect 3 0 8 0;
#X connect 4 0 7 0;
#X connect 5 0 6 0;
#X connect 6 0 1 0;
#X connect 7 0 2 0;
#X restore 542 191 pd hat;
#N canvas 0 22 737 591 snare 0;
#X obj 307 149 noise~;
#X msg 353 246 1 \, 0 40;
#X obj 344 310 *~;
#X obj 305 185 hip~ 400;
#X obj 354 274 line~;
#X obj 345 336 *~ 0.5;
#X obj 397 115 inlet;
#X obj 354 423 throw~ snare;
#X connect 0 0 3 0;
#X connect 1 0 4 0;
#X connect 2 0 5 0;
#X connect 3 0 2 0;
#X connect 4 0 2 1;
#X connect 5 0 7 0;
#X connect 6 0 1 0;
#X restore 392 263 pd snare;
#X obj 402 373 catch~ snare;
#X obj 318 373 catch~ tom;
#X obj 496 371 catch~ hat;
#X obj 577 372 catch~ kick;
#X connect 0 0 2 0;
#X connect 1 0 5 1;
#X connect 2 0 12 0;
#X connect 3 0 28 0;
#X connect 4 0 5 0;
#X connect 5 0 10 0;
#X connect 6 0 13 0;
#X connect 7 0 14 0;
#X connect 8 0 15 0;
#X connect 9 0 16 0;
#X connect 10 0 11 0;
#X connect 11 0 6 0;
#X connect 11 1 7 0;
#X connect 11 2 8 0;
#X connect 11 3 9 0;
#X connect 12 0 1 0;
#X connect 18 0 29 0;
#X connect 19 0 18 0;
#X connect 20 0 22 0;
#X connect 21 0 23 0;
#X connect 22 0 30 1;
#X connect 23 0 30 2;
#X connect 24 0 30 0;
#X connect 25 0 32 0;
#X connect 26 0 29 1;
#X connect 27 0 31 0;
#X connect 28 0 4 0;
#X connect 33 0 17 0;
#X connect 33 0 17 1;
#X connect 34 0 17 0;
#X connect 34 0 17 1;
#X connect 35 0 17 0;
#X connect 35 0 17 1;
#X connect 36 0 17 0;
#X connect 36 0 17 1;
