#N canvas 454 112 670 585 10;
#X obj 37 217 hip~ 5;
#X obj 37 185 tabread4~ sample-table;
#X obj 37 150 line~;
#X floatatom 37 69 0 0 100 0 - - -;
#X obj 37 125 pack 0 100;
#X obj 36 249 dac~;
#X obj 39 8 r Channel-A;
#X obj 39 36 * 100;
#X obj 233 225 tabwrite~ sample-table;
#X obj 235 163 adc~;
#X obj 327 26 r Channel-Push;
#X obj 156 258 loadbang;
#X msg 154 303 \; pd dsp 1 \;;
#X msg 314 126 start;
#X msg 372 124 stop;
#X obj 330 81 sel 1 0;
#X obj 313 257 table sample-table 88200;
#X obj 37 101 * 882;
#X connect 0 0 5 0;
#X connect 0 0 5 1;
#X connect 1 0 0 0;
#X connect 2 0 1 0;
#X connect 3 0 17 0;
#X connect 4 0 2 0;
#X connect 6 0 7 0;
#X connect 7 0 3 0;
#X connect 9 0 8 0;
#X connect 9 1 8 0;
#X connect 10 0 15 0;
#X connect 11 0 12 0;
#X connect 13 0 8 0;
#X connect 14 0 8 0;
#X connect 15 0 13 0;
#X connect 15 1 14 0;
#X connect 17 0 4 0;
