#N canvas 80 23 1286 688 10;
#X obj 107 -295 r Channel-A;
#X obj 109 -167 i;
#X obj 111 -264 hsl 128 15 0 1 0 0 empty empty empty -2 -8 0 10 -262144
-1 -1 2500 1;
#X obj 9 -332 r Channel-Push;
#X msg 9 -265 1;
#X msg 109 -74 \$2 \$1;
#X obj 10 -295 sel 1;
#N canvas 0 22 984 516 kick 0;
#X obj 612 318 osc~;
#X obj 702 158 f;
#X obj 746 113 + 20;
#X obj 846 115 + 20;
#X obj 846 71 * 1000;
#X obj 613 146 f;
#X obj 614 259 line~;
#X obj 614 180 pack f f;
#X obj 611 110 t b b b;
#X obj 746 69 * 200;
#X msg 614 221 \$1 \, 0 \$2;
#X obj 612 352 *~ 0.5;
#X obj 609 59 inlet;
#X obj 744 35 inlet;
#X obj 848 37 inlet;
#X obj 612 384 *~ 1;
#X obj 917 32 inlet;
#X obj 840 266 line;
#X msg 849 216 \$1 5;
#X obj 610 413 outlet~;
#X connect 0 0 11 0;
#X connect 1 0 7 1;
#X connect 2 0 5 1;
#X connect 3 0 1 1;
#X connect 4 0 3 0;
#X connect 5 0 7 0;
#X connect 6 0 0 0;
#X connect 7 0 10 0;
#X connect 8 0 5 0;
#X connect 8 1 1 0;
#X connect 9 0 2 0;
#X connect 10 0 6 0;
#X connect 11 0 15 0;
#X connect 12 0 8 0;
#X connect 13 0 9 0;
#X connect 14 0 4 0;
#X connect 15 0 19 0;
#X connect 16 0 18 0;
#X connect 17 0 15 1;
#X connect 18 0 17 0;
#X restore 131 161 pd kick;
#X obj 359 307 dac~;
#X floatatom 178 -106 5 0 0 0 - - -;
#X obj 586 -178 r Channel-B;
#X obj 628 -86 r Channel-C;
#X obj 621 35 r Channel-D;
#X obj 109 -201 * 6;
#N canvas 0 23 967 617 sliderselector1 0;
#X floatatom 467 -130 5 0 0 0 - - -;
#X obj 468 -167 int;
#X obj 434 103 spigot;
#X obj 468 42 unpack f f;
#X msg 467 -94 \$1 1 0;
#X obj 468 79 tgl 15 0 empty empty empty 17 7 0 10 -262144 -1 -1 0
1;
#X obj 552 44 unpack f f;
#X obj 552 81 tgl 15 0 empty empty empty 17 7 0 10 -262144 -1 -1 1
1;
#X obj 641 48 unpack f f;
#X obj 641 85 tgl 15 0 empty empty empty 17 7 0 10 -262144 -1 -1 0
1;
#X obj 520 125 spigot;
#X obj 601 141 spigot;
#X obj 767 -88 inlet;
#X obj 415 181 outlet;
#X obj 507 185 outlet;
#X obj 601 192 outlet;
#X obj 465 -221 inlet;
#X obj 467 -191 * 6;
#X obj 719 114 spigot;
#X obj 753 53 unpack f f;
#X obj 753 90 tgl 15 0 empty empty empty 17 7 0 10 -262144 -1 -1 0
1;
#X obj 837 55 unpack f f;
#X obj 837 92 tgl 15 0 empty empty empty 17 7 0 10 -262144 -1 -1 0
1;
#X obj 926 59 unpack f f;
#X obj 926 96 tgl 15 0 empty empty empty 17 7 0 10 -262144 -1 -1 0
1;
#X obj 805 136 spigot;
#X obj 886 152 spigot;
#X obj 700 192 outlet;
#X obj 792 196 outlet;
#X obj 886 203 outlet;
#X obj 467 -16 route 0 1 2 3 4 5;
#X connect 0 0 4 0;
#X connect 1 0 0 0;
#X connect 2 0 13 0;
#X connect 3 0 5 0;
#X connect 3 1 7 0;
#X connect 3 1 9 0;
#X connect 3 1 20 0;
#X connect 3 1 22 0;
#X connect 3 1 24 0;
#X connect 4 0 30 0;
#X connect 5 0 2 1;
#X connect 6 0 7 0;
#X connect 6 1 5 0;
#X connect 6 1 9 0;
#X connect 6 1 20 0;
#X connect 6 1 22 0;
#X connect 6 1 24 0;
#X connect 7 0 10 1;
#X connect 8 0 9 0;
#X connect 8 1 5 0;
#X connect 8 1 7 0;
#X connect 9 0 11 1;
#X connect 10 0 14 0;
#X connect 11 0 15 0;
#X connect 12 0 2 0;
#X connect 12 0 10 0;
#X connect 12 0 11 0;
#X connect 12 0 18 0;
#X connect 12 0 25 0;
#X connect 12 0 26 0;
#X connect 16 0 17 0;
#X connect 17 0 1 0;
#X connect 18 0 27 0;
#X connect 19 0 20 0;
#X connect 19 1 22 0;
#X connect 19 1 24 0;
#X connect 19 1 5 0;
#X connect 20 0 18 1;
#X connect 21 0 22 0;
#X connect 21 1 20 0;
#X connect 21 1 24 0;
#X connect 21 1 7 0;
#X connect 21 1 9 0;
#X connect 22 0 25 1;
#X connect 23 0 24 0;
#X connect 23 1 20 0;
#X connect 23 1 22 0;
#X connect 23 1 5 0;
#X connect 23 1 7 0;
#X connect 23 1 9 0;
#X connect 24 0 26 1;
#X connect 25 0 28 0;
#X connect 26 0 29 0;
#X connect 30 0 3 0;
#X connect 30 1 6 0;
#X connect 30 2 8 0;
#X connect 30 3 19 0;
#X connect 30 4 21 0;
#X connect 30 5 23 0;
#X restore 467 -117 pd sliderselector1;
#N canvas 0 23 967 617 sliderselector3 0;
#X floatatom 467 -130 5 0 0 0 - - -;
#X obj 468 -167 int;
#X obj 434 103 spigot;
#X obj 468 42 unpack f f;
#X msg 467 -94 \$1 1 0;
#X obj 468 79 tgl 15 0 empty empty empty 17 7 0 10 -262144 -1 -1 0
1;
#X obj 552 44 unpack f f;
#X obj 552 81 tgl 15 0 empty empty empty 17 7 0 10 -262144 -1 -1 1
1;
#X obj 641 48 unpack f f;
#X obj 641 85 tgl 15 0 empty empty empty 17 7 0 10 -262144 -1 -1 0
1;
#X obj 520 125 spigot;
#X obj 601 141 spigot;
#X obj 767 -88 inlet;
#X obj 415 181 outlet;
#X obj 507 185 outlet;
#X obj 601 192 outlet;
#X obj 465 -221 inlet;
#X obj 467 -191 * 6;
#X obj 719 114 spigot;
#X obj 753 53 unpack f f;
#X obj 753 90 tgl 15 0 empty empty empty 17 7 0 10 -262144 -1 -1 0
1;
#X obj 837 55 unpack f f;
#X obj 837 92 tgl 15 0 empty empty empty 17 7 0 10 -262144 -1 -1 0
1;
#X obj 926 59 unpack f f;
#X obj 926 96 tgl 15 0 empty empty empty 17 7 0 10 -262144 -1 -1 0
1;
#X obj 805 136 spigot;
#X obj 886 152 spigot;
#X obj 700 192 outlet;
#X obj 792 196 outlet;
#X obj 886 203 outlet;
#X obj 467 -16 route 0 1 2 3 4 5;
#X connect 0 0 4 0;
#X connect 1 0 0 0;
#X connect 2 0 13 0;
#X connect 3 0 5 0;
#X connect 3 1 7 0;
#X connect 3 1 9 0;
#X connect 3 1 20 0;
#X connect 3 1 22 0;
#X connect 3 1 24 0;
#X connect 4 0 30 0;
#X connect 5 0 2 1;
#X connect 6 0 7 0;
#X connect 6 1 5 0;
#X connect 6 1 9 0;
#X connect 6 1 20 0;
#X connect 6 1 22 0;
#X connect 6 1 24 0;
#X connect 7 0 10 1;
#X connect 8 0 9 0;
#X connect 8 1 5 0;
#X connect 8 1 7 0;
#X connect 9 0 11 1;
#X connect 10 0 14 0;
#X connect 11 0 15 0;
#X connect 12 0 2 0;
#X connect 12 0 10 0;
#X connect 12 0 11 0;
#X connect 12 0 18 0;
#X connect 12 0 25 0;
#X connect 12 0 26 0;
#X connect 16 0 17 0;
#X connect 17 0 1 0;
#X connect 18 0 27 0;
#X connect 19 0 20 0;
#X connect 19 1 22 0;
#X connect 19 1 24 0;
#X connect 19 1 5 0;
#X connect 20 0 18 1;
#X connect 21 0 22 0;
#X connect 21 1 20 0;
#X connect 21 1 24 0;
#X connect 21 1 7 0;
#X connect 21 1 9 0;
#X connect 22 0 25 1;
#X connect 23 0 24 0;
#X connect 23 1 20 0;
#X connect 23 1 22 0;
#X connect 23 1 5 0;
#X connect 23 1 7 0;
#X connect 23 1 9 0;
#X connect 24 0 26 1;
#X connect 25 0 28 0;
#X connect 26 0 29 0;
#X connect 30 0 3 0;
#X connect 30 1 6 0;
#X connect 30 2 8 0;
#X connect 30 3 19 0;
#X connect 30 4 21 0;
#X connect 30 5 23 0;
#X restore 505 72 pd sliderselector3;
#X obj 143 -25 route 0 1 2 3 4 5 6;
#N canvas 0 22 737 591 snare 0;
#X obj 231 118 noise~;
#X obj 344 310 *~;
#X obj 354 274 line~;
#X obj 345 336 *~ 0.5;
#X obj 383 88 inlet;
#N canvas 485 119 450 300 tri 0;
#X obj 111 150 phasor~;
#X msg 110 116 440;
#X obj 111 178 *~ 2;
#X obj 113 203 -~ 1;
#X msg 158 111 0;
#X obj 177 153 phasor~;
#X obj 177 181 *~ 2;
#X obj 179 206 -~ 1;
#X obj 137 239 +~;
#X obj 110 81 t b b b;
#X obj 139 289 outlet~;
#X obj 108 37 inlet;
#X obj 141 263 *~ 0.5;
#X connect 0 0 2 0;
#X connect 1 0 0 0;
#X connect 2 0 3 0;
#X connect 3 0 8 0;
#X connect 4 0 0 1;
#X connect 4 0 5 1;
#X connect 5 0 6 0;
#X connect 6 0 7 0;
#X connect 7 0 8 1;
#X connect 8 0 12 0;
#X connect 9 0 1 0;
#X connect 9 1 4 0;
#X connect 11 0 9 0;
#X connect 12 0 10 0;
#X restore 439 218 pd tri;
#X obj 455 320 *~;
#X obj 465 284 line~;
#X obj 383 162 t b b b;
#X obj 356 428 *~ 0.5;
#X obj 414 429 *~ 0.5;
#X msg 597 333 1;
#X obj 577 298 t f b f;
#X obj 601 383 -;
#X obj 578 263 inlet;
#X obj 445 190 i 40;
#X msg 464 256 1 \, 0 \$1;
#X obj 373 204 i 40;
#X msg 353 246 1 \, 0 \$1;
#X obj 482 65 inlet;
#X obj 481 99 * 100;
#X obj 683 361 inlet;
#X obj 354 469 *~ 1;
#X obj 481 120 + 20;
#X obj 679 422 line;
#X msg 682 391 \$1 5;
#X obj 353 531 outlet~;
#X obj 285 188 bp~ 440;
#X connect 0 0 27 0;
#X connect 1 0 3 0;
#X connect 2 0 1 1;
#X connect 3 0 9 0;
#X connect 4 0 8 0;
#X connect 5 0 6 0;
#X connect 6 0 10 0;
#X connect 7 0 6 1;
#X connect 8 0 17 0;
#X connect 8 1 5 0;
#X connect 8 2 15 0;
#X connect 9 0 22 0;
#X connect 10 0 22 0;
#X connect 11 0 13 0;
#X connect 12 0 9 1;
#X connect 12 1 11 0;
#X connect 12 2 13 1;
#X connect 13 0 10 1;
#X connect 14 0 12 0;
#X connect 15 0 16 0;
#X connect 16 0 7 0;
#X connect 17 0 18 0;
#X connect 18 0 2 0;
#X connect 19 0 20 0;
#X connect 20 0 23 0;
#X connect 21 0 25 0;
#X connect 22 0 26 0;
#X connect 23 0 15 1;
#X connect 23 0 17 1;
#X connect 24 0 22 1;
#X connect 25 0 24 0;
#X connect 27 0 1 0;
#X restore 360 237 pd snare;
#N canvas 0 23 967 617 sliderselector2 0;
#X floatatom 467 -130 5 0 0 0 - - -;
#X obj 468 -167 int;
#X obj 434 103 spigot;
#X obj 468 42 unpack f f;
#X msg 467 -94 \$1 1 0;
#X obj 468 79 tgl 15 0 empty empty empty 17 7 0 10 -262144 -1 -1 0
1;
#X obj 552 44 unpack f f;
#X obj 552 81 tgl 15 0 empty empty empty 17 7 0 10 -262144 -1 -1 1
1;
#X obj 641 48 unpack f f;
#X obj 641 85 tgl 15 0 empty empty empty 17 7 0 10 -262144 -1 -1 0
1;
#X obj 520 125 spigot;
#X obj 601 141 spigot;
#X obj 767 -88 inlet;
#X obj 415 181 outlet;
#X obj 507 185 outlet;
#X obj 601 192 outlet;
#X obj 465 -221 inlet;
#X obj 467 -191 * 6;
#X obj 719 114 spigot;
#X obj 753 53 unpack f f;
#X obj 753 90 tgl 15 0 empty empty empty 17 7 0 10 -262144 -1 -1 0
1;
#X obj 837 55 unpack f f;
#X obj 837 92 tgl 15 0 empty empty empty 17 7 0 10 -262144 -1 -1 0
1;
#X obj 926 59 unpack f f;
#X obj 926 96 tgl 15 0 empty empty empty 17 7 0 10 -262144 -1 -1 0
1;
#X obj 805 136 spigot;
#X obj 886 152 spigot;
#X obj 700 192 outlet;
#X obj 792 196 outlet;
#X obj 886 203 outlet;
#X obj 467 -16 route 0 1 2 3 4 5;
#X connect 0 0 4 0;
#X connect 1 0 0 0;
#X connect 2 0 13 0;
#X connect 3 0 5 0;
#X connect 3 1 7 0;
#X connect 3 1 9 0;
#X connect 3 1 20 0;
#X connect 3 1 22 0;
#X connect 3 1 24 0;
#X connect 4 0 30 0;
#X connect 5 0 2 1;
#X connect 6 0 7 0;
#X connect 6 1 5 0;
#X connect 6 1 9 0;
#X connect 6 1 20 0;
#X connect 6 1 22 0;
#X connect 6 1 24 0;
#X connect 7 0 10 1;
#X connect 8 0 9 0;
#X connect 8 1 5 0;
#X connect 8 1 7 0;
#X connect 9 0 11 1;
#X connect 10 0 14 0;
#X connect 11 0 15 0;
#X connect 12 0 2 0;
#X connect 12 0 10 0;
#X connect 12 0 11 0;
#X connect 12 0 18 0;
#X connect 12 0 25 0;
#X connect 12 0 26 0;
#X connect 16 0 17 0;
#X connect 17 0 1 0;
#X connect 18 0 27 0;
#X connect 19 0 20 0;
#X connect 19 1 22 0;
#X connect 19 1 24 0;
#X connect 19 1 5 0;
#X connect 20 0 18 1;
#X connect 21 0 22 0;
#X connect 21 1 20 0;
#X connect 21 1 24 0;
#X connect 21 1 7 0;
#X connect 21 1 9 0;
#X connect 22 0 25 1;
#X connect 23 0 24 0;
#X connect 23 1 20 0;
#X connect 23 1 22 0;
#X connect 23 1 5 0;
#X connect 23 1 7 0;
#X connect 23 1 9 0;
#X connect 24 0 26 1;
#X connect 25 0 28 0;
#X connect 26 0 29 0;
#X connect 30 0 3 0;
#X connect 30 1 6 0;
#X connect 30 2 8 0;
#X connect 30 3 19 0;
#X connect 30 4 21 0;
#X connect 30 5 23 0;
#X restore 488 -39 pd sliderselector2;
#X obj 109 -124 pack f f;
#X connect 0 0 2 0;
#X connect 1 0 9 0;
#X connect 1 0 19 1;
#X connect 2 0 13 0;
#X connect 2 0 15 0;
#X connect 2 0 14 0;
#X connect 2 0 18 0;
#X connect 3 0 6 0;
#X connect 4 0 19 0;
#X connect 5 0 16 0;
#X connect 6 0 4 0;
#X connect 7 0 8 0;
#X connect 7 0 8 1;
#X connect 10 0 14 1;
#X connect 11 0 18 1;
#X connect 12 0 15 1;
#X connect 13 0 1 0;
#X connect 14 0 7 1;
#X connect 14 1 17 1;
#X connect 15 0 7 3;
#X connect 15 1 17 3;
#X connect 16 0 7 0;
#X connect 16 1 17 0;
#X connect 17 0 8 0;
#X connect 17 0 8 1;
#X connect 18 0 7 2;
#X connect 18 1 17 2;
#X connect 19 0 5 0;
