#N canvas 80 23 1286 688 10;
#X obj 107 -295 r Channel-A;
#X obj 109 -167 i;
#X obj 111 -264 hsl 128 15 0 1 0 0 empty empty empty -2 -8 0 10 -262144
-1 -1 0 1;
#X obj 9 -332 r Channel-Push;
#X msg 9 -265 1;
#X obj 109 -124 pack;
#X msg 109 -74 \$2 \$1;
#X obj 10 -295 sel 1;
#X obj 109 -38 route 0 1 2 3 4 5 6 7;
#N canvas 0 22 984 516 kick 0;
#X obj 612 318 osc~;
#X obj 702 158 f;
#X obj 746 113 + 20;
#X obj 846 115 + 20;
#X obj 846 71 * 1000;
#X obj 613 146 f;
#X obj 614 259 line~;
#X obj 614 180 pack f f;
#X obj 611 110 t b b b;
#X obj 746 69 * 200;
#X msg 614 221 \$1 \, 0 \$2;
#X obj 612 352 *~ 0.5;
#X obj 609 59 inlet;
#X obj 744 35 inlet;
#X obj 848 37 inlet;
#X obj 612 384 *~ 1;
#X obj 917 32 inlet;
#X obj 840 266 line;
#X msg 849 216 \$1 5;
#X obj 610 413 outlet~;
#X connect 0 0 11 0;
#X connect 1 0 7 1;
#X connect 2 0 5 1;
#X connect 3 0 1 1;
#X connect 4 0 3 0;
#X connect 5 0 7 0;
#X connect 6 0 0 0;
#X connect 7 0 10 0;
#X connect 8 0 5 0;
#X connect 8 1 1 0;
#X connect 9 0 2 0;
#X connect 10 0 6 0;
#X connect 11 0 15 0;
#X connect 12 0 8 0;
#X connect 13 0 9 0;
#X connect 14 0 4 0;
#X connect 15 0 19 0;
#X connect 16 0 18 0;
#X connect 17 0 15 1;
#X connect 18 0 17 0;
#X restore 103 155 pd kick;
#X obj 359 307 dac~;
#X floatatom 178 -106 5 0 0 0 - - -;
#X obj 679 -67 r Channel-C;
#X obj 706 47 r Channel-D;
#X obj 539 -247 hsl 128 15 0 1 0 0 empty empty empty -2 -8 0 10 -262144
-1 -1 0 1;
#X obj 650 -110 hsl 128 15 0 1 0 0 empty empty empty -2 -8 0 10 -262144
-1 -1 0 1;
#X obj 768 73 hsl 128 15 0 1 0 0 empty empty empty -2 -8 0 10 -262144
-1 -1 0 1;
#X obj 109 -201 * 6;
#N canvas 0 22 737 591 snare 0;
#X obj 290 118 noise~;
#X obj 344 310 *~;
#X obj 354 274 line~;
#X obj 345 336 *~ 0.5;
#X obj 383 88 inlet;
#N canvas 485 119 450 300 tri 0;
#X obj 111 150 phasor~;
#X msg 110 116 440;
#X obj 111 178 *~ 2;
#X obj 113 203 -~ 1;
#X msg 158 111 0;
#X obj 177 153 phasor~;
#X obj 177 181 *~ 2;
#X obj 179 206 -~ 1;
#X obj 137 239 +~;
#X obj 110 81 t b b b;
#X obj 139 289 outlet~;
#X obj 108 37 inlet;
#X obj 141 263 *~ 0.5;
#X connect 0 0 2 0;
#X connect 1 0 0 0;
#X connect 2 0 3 0;
#X connect 3 0 8 0;
#X connect 4 0 0 1;
#X connect 4 0 5 1;
#X connect 5 0 6 0;
#X connect 6 0 7 0;
#X connect 7 0 8 1;
#X connect 8 0 12 0;
#X connect 9 0 1 0;
#X connect 9 1 4 0;
#X connect 11 0 9 0;
#X connect 12 0 10 0;
#X restore 439 218 pd tri;
#X obj 455 320 *~;
#X obj 465 284 line~;
#X obj 383 162 t b b b;
#X obj 356 428 *~ 0.5;
#X obj 414 429 *~ 0.5;
#X msg 597 333 1;
#X obj 577 298 t f b f;
#X obj 601 383 -;
#X obj 578 263 inlet;
#X obj 445 190 i 40;
#X obj 305 185 hip~ 440;
#X msg 464 256 1 \, 0 \$1;
#X obj 373 204 i 40;
#X msg 353 246 1 \, 0 \$1;
#X obj 482 65 inlet;
#X obj 481 99 * 100;
#X obj 683 361 inlet;
#X obj 354 469 *~ 1;
#X obj 481 120 + 20;
#X obj 679 422 line;
#X msg 682 391 \$1 5;
#X obj 353 531 outlet~;
#X connect 0 0 16 0;
#X connect 1 0 3 0;
#X connect 2 0 1 1;
#X connect 3 0 9 0;
#X connect 4 0 8 0;
#X connect 5 0 6 0;
#X connect 6 0 10 0;
#X connect 7 0 6 1;
#X connect 8 0 18 0;
#X connect 8 1 5 0;
#X connect 8 2 15 0;
#X connect 9 0 23 0;
#X connect 10 0 23 0;
#X connect 11 0 13 0;
#X connect 12 0 9 1;
#X connect 12 1 11 0;
#X connect 12 2 13 1;
#X connect 13 0 10 1;
#X connect 14 0 12 0;
#X connect 15 0 17 0;
#X connect 16 0 1 0;
#X connect 17 0 7 0;
#X connect 18 0 19 0;
#X connect 19 0 2 0;
#X connect 20 0 21 0;
#X connect 21 0 24 0;
#X connect 22 0 26 0;
#X connect 23 0 27 0;
#X connect 24 0 15 1;
#X connect 24 0 18 1;
#X connect 25 0 23 1;
#X connect 26 0 25 0;
#X restore 299 194 pd snare;
#N canvas 0 22 829 594 tom1 0;
#X obj 458 176 *~;
#X obj 455 136 osc~;
#X obj 452 75 * 60;
#X obj 454 102 + 100;
#X obj 371 129 line~;
#X obj 468 223 *~ 0.5;
#X obj 357 -66 inlet;
#X obj 457 42 inlet;
#X obj 478 276 *~ 1;
#X obj 521 -36 inlet;
#X obj 368 47 i 200;
#X obj 593 7 inlet;
#X obj 522 -5 * 500;
#X msg 369 76 1 \, 0 \$1;
#X obj 564 137 line;
#X msg 573 87 \$1 5;
#X obj 478 333 outlet~;
#X connect 0 0 5 0;
#X connect 1 0 0 0;
#X connect 2 0 3 0;
#X connect 3 0 1 0;
#X connect 4 0 0 1;
#X connect 5 0 8 0;
#X connect 6 0 10 0;
#X connect 7 0 2 0;
#X connect 8 0 16 0;
#X connect 9 0 12 0;
#X connect 10 0 13 0;
#X connect 11 0 15 0;
#X connect 12 0 10 1;
#X connect 13 0 4 0;
#X connect 14 0 8 1;
#X connect 15 0 14 0;
#X restore 441 213 pd tom1;
#N canvas 0 22 829 594 tom2 0;
#X obj 458 176 *~;
#X obj 455 136 osc~;
#X obj 452 75 * 60;
#X obj 454 102 + 100;
#X obj 371 129 line~;
#X obj 468 223 *~ 0.5;
#X obj 367 2 inlet;
#X obj 457 42 inlet;
#X obj 478 276 *~ 1;
#X obj 521 -36 inlet;
#X obj 368 47 i 200;
#X obj 593 7 inlet;
#X obj 522 -5 * 500;
#X msg 369 76 1 \, 0 \$1;
#X obj 564 137 line;
#X msg 573 87 \$1 5;
#X obj 478 333 outlet~;
#X connect 0 0 5 0;
#X connect 1 0 0 0;
#X connect 2 0 3 0;
#X connect 3 0 1 0;
#X connect 4 0 0 1;
#X connect 5 0 8 0;
#X connect 6 0 10 0;
#X connect 7 0 2 0;
#X connect 8 0 16 0;
#X connect 9 0 12 0;
#X connect 10 0 13 0;
#X connect 11 0 15 0;
#X connect 12 0 10 1;
#X connect 13 0 4 0;
#X connect 14 0 8 1;
#X connect 15 0 14 0;
#X restore 513 214 pd tom2;
#N canvas 0 22 829 594 tom3 0;
#X obj 458 176 *~;
#X obj 455 136 osc~;
#X obj 452 75 * 60;
#X obj 454 102 + 100;
#X obj 371 129 line~;
#X obj 468 223 *~ 0.5;
#X obj 367 2 inlet;
#X obj 457 42 inlet;
#X obj 478 276 *~ 1;
#X obj 521 -36 inlet;
#X obj 368 47 i 200;
#X obj 593 7 inlet;
#X obj 522 -5 * 500;
#X msg 369 76 1 \, 0 \$1;
#X obj 564 137 line;
#X msg 573 87 \$1 5;
#X obj 478 333 outlet~;
#X connect 0 0 5 0;
#X connect 1 0 0 0;
#X connect 2 0 3 0;
#X connect 3 0 1 0;
#X connect 4 0 0 1;
#X connect 5 0 8 0;
#X connect 6 0 10 0;
#X connect 7 0 2 0;
#X connect 8 0 16 0;
#X connect 9 0 12 0;
#X connect 10 0 13 0;
#X connect 11 0 15 0;
#X connect 12 0 10 1;
#X connect 13 0 4 0;
#X connect 14 0 8 1;
#X connect 15 0 14 0;
#X restore 574 217 pd tom3;
#X connect 0 0 2 0;
#X connect 1 0 5 1;
#X connect 1 0 11 0;
#X connect 2 0 17 0;
#X connect 3 0 7 0;
#X connect 4 0 5 0;
#X connect 5 0 6 0;
#X connect 6 0 8 0;
#X connect 7 0 4 0;
#X connect 8 0 9 0;
#X connect 8 1 18 0;
#X connect 8 2 19 0;
#X connect 8 3 20 0;
#X connect 8 4 21 0;
#X connect 9 0 10 0;
#X connect 9 0 10 1;
#X connect 17 0 1 0;
#X connect 18 0 10 0;
#X connect 18 0 10 1;
#X connect 19 0 10 0;
#X connect 19 0 10 1;
#X connect 20 0 10 0;
#X connect 20 0 10 1;
#X connect 21 0 10 0;
#X connect 21 0 10 1;
